<svg version="1.0" xmlns="http://www.w3.org/2000/svg"
   width="8334.000000pt" height="8334.000000pt" viewBox="0 0 8334.000000 8334.000000"
   preserveAspectRatio="xMidYMid meet">

   <g transform="translate(0.000000,8334.000000) scale(0.100000,-0.100000)"
      fill="#000000" stroke="none">
      <path id="astronaut"
         d="M35468 72075 c-609 -83 -1138 -486 -1372 -1044 -46 -111 -222 -637
-300 -896 -653 -2182 -862 -4314 -636 -6505 32 -307 89 -742 126 -965 45 -268
60 -352 105 -590 226 -1179 588 -2420 1064 -3645 102 -262 249 -626 320 -790
l36 -85 -253 250 c-284 281 -444 428 -693 635 -1197 996 -2597 1706 -4115
2085 -1080 270 -2250 364 -3360 269 -2290 -195 -4432 -1130 -6120 -2673 -137
-125 -530 -517 -652 -651 -544 -595 -1034 -1277 -1433 -1995 -122 -219 -351
-688 -454 -930 -745 -1745 -993 -3642 -725 -5535 60 -430 169 -941 285 -1344
22 -76 39 -140 37 -141 -2 -1 -82 -7 -179 -14 -541 -34 -996 -198 -1409 -508
-527 -394 -961 -1064 -1269 -1958 -58 -166 -70 -218 -100 -415 -155 -1036 -30
-1855 379 -2484 423 -650 1127 -1070 2135 -1275 251 -51 725 -111 876 -111 31
0 51 -5 60 -17 8 -9 131 -123 274 -253 932 -848 1787 -1522 2750 -2165 324
-217 748 -484 1000 -630 55 -32 138 -81 185 -108 680 -396 1532 -818 2275
-1129 959 -400 1817 -685 2896 -959 l36 -9 28 -137 c69 -341 185 -858 255
-1135 l22 -88 -38 -46 c-162 -193 -252 -365 -303 -582 -63 -270 -43 -471 104
-1025 342 -1286 870 -2434 1556 -3377 240 -331 364 -448 598 -564 173 -87 337
-129 551 -142 l110 -7 57 -76 c426 -567 952 -1132 1508 -1620 386 -339 903
-714 1372 -996 141 -84 162 -100 158 -119 -28 -125 -43 -444 -33 -673 55
-1253 774 -2723 2092 -4277 116 -137 159 -186 296 -340 245 -275 811 -850
1078 -1096 l103 -94 -68 -66 c-421 -405 -673 -912 -722 -1450 -30 -328 18
-666 145 -1016 171 -472 489 -924 909 -1288 242 -211 513 -336 828 -382 150
-22 419 -15 559 15 225 49 354 106 743 328 1336 766 2517 1638 3459 2553 462
449 809 826 1118 1215 117 148 213 323 260 477 l23 76 120 -116 c529 -515
1007 -904 1573 -1281 278 -185 588 -369 810 -480 81 -40 102 -55 98 -69 -13
-45 -17 -363 -6 -517 52 -790 308 -1405 780 -1875 355 -355 757 -564 1250
-651 149 -27 433 -36 595 -20 374 38 748 164 1099 371 214 127 389 323 475
536 23 58 291 883 811 2504 54 168 139 433 190 590 122 378 147 459 360 1120
100 311 211 655 246 765 82 252 98 340 98 520 0 205 -38 373 -124 550 -115
238 -243 369 -595 614 -137 96 -257 180 -266 188 -14 11 -13 33 13 225 15 117
46 357 68 533 22 176 54 419 70 540 28 211 45 339 145 1120 25 193 47 360 50
372 3 12 37 59 76 105 39 46 81 94 93 108 11 14 97 115 191 225 167 198 253
298 536 630 80 94 221 260 314 369 94 110 251 295 350 411 99 116 194 227 211
248 l31 37 69 -31 c295 -134 602 -195 939 -186 346 9 613 76 929 234 59 30
111 52 114 49 3 -4 14 -95 24 -204 10 -108 43 -467 73 -797 70 -770 70 -768
102 -833 35 -69 108 -135 181 -163 95 -36 155 -30 412 41 295 81 817 239 918
277 9 4 12 -54 12 -268 1 -1371 320 -2635 940 -3719 125 -218 296 -478 352
-537 139 -143 364 -142 498 3 22 24 66 95 97 158 l57 115 72 -207 c280 -812
668 -1507 1193 -2137 274 -329 808 -824 968 -898 38 -17 66 -22 138 -22 80 0
97 3 148 30 117 58 127 77 405 717 26 59 49 108 52 108 3 0 14 -15 24 -32 34
-59 198 -290 290 -407 513 -661 1222 -1321 2066 -1923 982 -701 2150 -1342
3498 -1919 301 -129 344 -143 427 -137 123 10 252 106 289 215 28 81 67 432
98 888 21 300 17 1372 -5 1695 -87 1257 -299 2292 -669 3275 -58 154 -200 490
-239 567 -11 21 -16 38 -11 38 4 0 59 -7 122 -16 66 -9 136 -13 165 -9 117 14
231 103 275 213 58 144 29 770 -61 1304 -141 847 -443 1661 -871 2346 -50 79
-88 145 -86 148 3 2 60 -17 129 -42 148 -55 205 -66 279 -52 187 34 313 209
281 391 -23 132 -140 476 -253 742 -469 1105 -1237 2113 -2188 2872 -257 205
-548 406 -835 578 -71 43 -131 79 -133 80 -2 1 28 27 65 56 352 276 670 535
724 589 80 79 104 136 104 252 -1 67 -5 84 -35 144 -33 66 -50 82 -335 327
-165 142 -350 301 -412 352 -61 52 -117 101 -125 108 -7 7 -173 149 -368 316
-195 167 -361 309 -368 316 -10 9 2 24 63 74 230 191 422 435 556 707 61 126
138 343 160 450 l12 61 121 22 c1006 177 2020 356 2404 422 l183 32 212 -91
c281 -119 1435 -611 1967 -837 113 -48 554 -236 980 -418 l775 -331 90 -1 c83
0 96 3 158 33 80 39 134 101 167 189 18 47 21 73 18 137 l-5 80 -226 450
c-462 922 -901 1696 -1461 2576 -814 1281 -1820 2596 -2671 3490 -158 166
-181 185 -309 254 -521 279 -1258 546 -2018 731 -1073 261 -2254 397 -3632
418 l-139 2 -185 330 c-344 616 -1024 1828 -1352 2410 -180 319 -338 600 -352
625 -47 84 -550 973 -824 1457 -151 266 -274 487 -274 492 0 4 21 39 46 77
149 222 226 482 226 759 -1 208 -47 406 -137 585 -69 137 -961 1628 -1021
1707 -129 168 -341 332 -533 411 -185 77 -394 117 -579 110 l-94 -3 -110 190
c-61 105 -161 278 -223 385 -677 1175 -2101 3612 -2753 4710 -96 162 -303 511
-460 775 -287 484 -1412 2361 -1648 2750 -930 1534 -1222 2012 -1916 3135
-151 245 -321 519 -378 610 -57 91 -131 210 -165 265 -483 785 -665 1062 -962
1473 -1211 1670 -2492 3099 -3823 4262 -2388 2086 -4993 3359 -7830 3824 -423
70 -580 80 -792 51z m-461 -1132 c-401 -1219 -657 -2420 -771 -3623 -49 -513
-65 -807 -72 -1340 -31 -2040 345 -4168 1121 -6360 296 -834 691 -1775 1087
-2590 68 -139 106 -230 101 -237 -122 -179 -197 -293 -253 -383 l-69 -112
-102 208 c-493 1014 -867 1896 -1186 2799 -900 2543 -1243 4944 -1047 7315
106 1283 376 2570 815 3875 87 259 155 402 244 513 61 75 203 208 213 198 2
-2 -35 -121 -81 -263z m5269 -7108 c173 -23 476 -99 513 -129 8 -6 15 -9 15
-7 1 6 72 -18 131 -44 28 -12 75 -33 105 -46 242 -103 634 -351 850 -535 14
-12 63 -54 110 -94 211 -179 433 -410 688 -716 31 -36 150 -193 248 -327 51
-68 114 -171 114 -184 0 -5 -48 -32 -107 -58 -295 -133 -983 -480 -1285 -649
-27 -15 -48 -23 -48 -19 0 4 -4 3 -8 -3 -9 -14 -153 -97 -169 -97 -7 0 -13 -3
-13 -7 0 -3 -19 -17 -42 -30 -82 -45 -334 -193 -481 -282 -81 -49 -153 -86
-159 -82 -6 4 -8 3 -5 -3 3 -5 -76 -61 -176 -124 -100 -63 -306 -197 -457
-298 -151 -101 -280 -184 -287 -184 -7 0 -10 -4 -7 -9 5 -7 -10 -12 -29 -9 -5
1 -6 -3 -3 -8 3 -4 -13 -21 -37 -36 -23 -16 -98 -69 -167 -118 -69 -50 -130
-90 -137 -90 -7 0 -11 -3 -9 -6 2 -3 -7 -14 -20 -24 -23 -17 -24 -17 -48 21
-13 22 -33 54 -43 73 -10 19 -30 52 -44 74 -14 22 -45 72 -69 110 -24 39 -58
93 -76 120 -36 57 -155 300 -256 525 -40 88 -152 385 -191 505 -84 259 -136
479 -165 696 -25 179 -22 140 -28 367 -12 398 55 719 211 1007 89 165 241 341
390 453 122 91 386 214 508 236 15 2 37 8 50 12 105 34 443 44 633 19z m7549
-1520 c185 -21 352 -55 374 -74 30 -26 1399 -2244 2136 -3461 445 -735 652
-1077 1109 -1840 556 -925 649 -1082 1111 -1860 408 -688 988 -1670 1260
-2135 659 -1125 1050 -1797 1602 -2750 447 -772 453 -783 453 -793 0 -10 -24
-24 -1005 -607 -368 -219 -913 -543 -1210 -720 -297 -177 -679 -405 -850 -505
-343 -203 -274 -162 -2425 -1440 -3179 -1891 -3600 -2140 -3612 -2143 -8 -2
-241 349 -914 1373 -1877 2857 -2017 3068 -2064 3112 -30 28 -72 55 -106 68
l-57 21 -1471 -4 c-809 -3 -1483 -6 -1498 -8 -26 -4 -37 13 -241 356 -1115
1876 -2805 4778 -3835 6584 l-111 194 51 101 c150 300 421 700 721 1065 1198
1456 3191 2956 5407 4070 1677 844 3210 1329 4450 1411 182 12 565 4 725 -15z
m-19985 -2186 c1698 -109 3282 -634 4694 -1557 801 -523 1535 -1180 2177
-1947 740 -885 1355 -1998 1727 -3125 292 -886 457 -1818 478 -2700 l6 -245
-86 170 c-180 359 -402 663 -682 935 -591 574 -1321 895 -2134 939 -367 20
-744 -23 -1090 -125 -69 -20 -134 -38 -145 -41 -17 -4 -26 9 -59 94 -21 54
-71 175 -111 268 -825 1928 -2150 3546 -3800 4644 -1393 927 -2905 1461 -4550
1607 -351 31 -996 30 -1430 -2 l-70 -5 180 92 c237 121 458 220 745 334 1010
401 2075 628 3176 675 228 10 745 4 974 -11z m-3670 -1644 c766 -62 1448 -205
2185 -456 1944 -661 3641 -1984 4816 -3754 346 -520 652 -1082 894 -1640 78
-179 101 -234 166 -397 l18 -46 -72 -43 c-105 -61 -279 -181 -380 -262 -48
-38 -90 -67 -94 -64 -3 3 -27 60 -53 125 -118 290 -302 673 -450 937 -1019
1816 -2658 3240 -4643 4034 -988 395 -2016 613 -3022 640 -831 22 -1587 -61
-2355 -260 -346 -90 -732 -216 -1043 -342 l-88 -36 43 52 c73 88 575 587 718
713 153 136 383 327 513 428 101 78 155 99 473 179 476 121 880 180 1454 211
142 8 746 -4 920 -19z m-500 -2604 c75 -6 119 -15 153 -31 74 -35 142 -102
179 -178 31 -63 33 -73 33 -172 0 -171 -27 -207 -338 -464 -947 -780 -1669
-1672 -2178 -2687 -629 -1257 -994 -2841 -1124 -4889 -27 -420 -28 -432 -64
-504 -97 -198 -365 -268 -550 -145 -90 60 -119 107 -193 314 -361 1004 -554
1892 -630 2885 -16 219 -16 918 0 1125 69 848 226 1502 527 2185 138 315 361
686 578 965 694 890 1645 1424 2788 1565 277 34 614 47 819 31z m14205 -4001
c563 -968 1103 -1887 1708 -2910 187 -316 347 -587 356 -602 9 -15 13 -29 11
-32 -4 -4 -1118 -541 -1515 -731 -1121 -535 -1210 -581 -1403 -723 -41 -29
-76 -52 -78 -49 -2 2 7 35 22 73 146 386 309 952 408 1414 296 1388 300 2871
10 4260 -19 90 -34 169 -34 174 0 6 35 -50 78 -124 43 -74 240 -412 437 -750z
m-3860 40 c142 -10 349 -41 426 -63 42 -12 40 -13 -95 -25 -529 -48 -1018
-257 -1427 -610 -768 -664 -1112 -1747 -883 -2781 91 -410 288 -825 543 -1145
296 -370 725 -680 1146 -826 175 -61 175 -61 30 -55 -661 29 -1260 286 -1736
747 -398 385 -676 894 -789 1442 -73 359 -73 783 2 1136 87 414 253 781 505
1119 119 159 382 421 544 542 370 275 797 449 1239 503 205 26 309 29 495 16z
m812 -666 c635 -91 1200 -521 1511 -1149 59 -120 84 -192 117 -346 42 -200 58
-356 58 -589 0 -471 -94 -865 -304 -1280 -102 -202 -170 -299 -300 -426 -555
-541 -1301 -709 -2009 -452 -252 91 -553 289 -738 486 -335 355 -536 772 -609
1258 -24 163 -24 495 0 654 40 258 112 489 219 704 115 229 218 375 393 555
183 188 341 304 560 411 352 172 716 229 1102 174z m-5992 -814 c380 -103 663
-391 758 -770 31 -126 30 -360 -2 -484 -99 -381 -384 -669 -759 -767 -100 -27
-292 -36 -403 -20 -436 64 -783 390 -871 821 -26 127 -21 356 10 473 78 287
271 527 528 659 114 58 158 74 269 98 123 27 352 22 470 -10z m13729 -2568
c-5 -5 -146 -108 -314 -229 -168 -121 -566 -409 -885 -639 -319 -231 -601
-435 -627 -454 -52 -36 -57 -50 -11 -27 54 27 2765 1189 2767 1185 1 -2 231
-352 511 -778 280 -426 604 -919 720 -1095 115 -176 293 -446 394 -600 101
-154 332 -507 515 -785 182 -278 342 -522 354 -542 l23 -37 -183 76 c-381 156
-467 183 -663 204 -255 27 -551 -28 -785 -145 -47 -23 -308 -180 -580 -348
-272 -168 -610 -376 -750 -462 -295 -182 -331 -208 -438 -320 -94 -98 -170
-208 -224 -323 l-40 -84 -151 148 c-657 641 -1472 1268 -2322 1788 -766 468
-1476 742 -2269 875 -269 45 -624 80 -818 80 -43 0 -78 4 -78 9 0 18 64 161
115 259 163 306 382 549 675 744 59 39 220 127 368 199 145 71 265 129 267
129 1 0 101 48 221 106 902 438 1935 932 2014 964 52 22 131 48 175 59 185 48
208 49 1144 50 487 1 881 -3 875 -7z m11992 -97 c-1 -13 -4 -27 -7 -30 -5 -4
-4 41 0 53 4 10 8 -2 7 -23z m-116 -50 c-7 -8 -18 -15 -24 -15 -6 0 -2 7 8 15
25 19 32 19 16 0z m-124 -70 c-1 -8 -5 -17 -8 -21 -5 -4 -4 16 1 34 3 9 9 -1
7 -13z m-76 -50 c-7 -8 -20 -15 -29 -15 -11 0 -8 5 9 14 33 19 35 19 20 1z
m-114 -60 c-13 -10 -15 -15 -6 -15 25 0 1 -13 -32 -16 -22 -3 -28 -1 -19 5 8
5 21 7 29 3 10 -3 13 -1 8 6 -3 6 2 15 11 21 26 15 31 13 9 -4z m-96 -65 c-24
-15 -36 -11 -14 4 10 8 21 12 24 10 2 -3 -2 -9 -10 -14z m-138 -114 c6 4 8 3
4 -4 -5 -8 -33 -10 -64 -3 -2 1 0 6 3 11 4 7 13 7 26 0 11 -6 25 -8 31 -4z
m-137 -57 c-4 -5 -12 -9 -18 -8 -9 0 -8 2 1 6 6 2 9 10 6 15 -4 7 -2 8 5 4 6
-4 9 -12 6 -17z m-85 -33 c0 -2 -12 -11 -27 -20 l-28 -17 24 20 c23 21 31 25
31 17z m-69 -49 c-6 -8 -7 -18 -3 -22 4 -5 1 -5 -6 -1 -10 6 -10 11 -1 22 6 8
14 14 16 14 3 0 0 -6 -6 -13z m-36 -17 c-3 -5 -12 -10 -18 -10 -7 0 -6 4 3 10
19 12 23 12 15 0z m75 -4 c0 -3 -4 -8 -10 -11 -5 -3 -10 -1 -10 4 0 6 5 11 10
11 6 0 10 -2 10 -4z m-25887 -21 c341 -51 605 -248 765 -570 172 -345 167
-848 -13 -1275 -250 -596 -737 -1026 -1295 -1146 -131 -28 -376 -25 -494 5
-251 65 -443 197 -588 401 -248 351 -285 885 -95 1380 298 779 1050 1306 1720
1205z m25717 -30 c0 -2 -10 -9 -22 -15 -22 -11 -22 -10 -4 4 21 17 26 19 26
11z m44 -44 c3 -4 -6 -6 -19 -3 -14 2 -25 6 -25 8 0 8 39 4 44 -5z m-121 -111
c-10 -11 -19 -20 -21 -20 -1 0 2 9 8 20 6 11 15 20 20 20 6 0 2 -9 -7 -20z m8
-33 c-10 -9 -11 -8 -5 6 3 10 9 15 12 12 3 -3 0 -11 -7 -18z m25 -41 c0 -14
-5 -21 -9 -17 -4 4 -5 15 -1 24 9 24 12 21 10 -7z m64 -72 c0 -8 -19 -13 -24
-6 -3 5 1 9 9 9 8 0 15 -2 15 -3z m4 -40 c10 -25 -1 -29 -14 -5 -6 12 -7 21
-1 21 5 0 12 -7 15 -16z m-36614 -181 c124 -126 196 -225 236 -324 l25 -62
-197 -191 c-290 -281 -470 -493 -607 -714 -157 -253 -217 -434 -237 -708 -32
-431 82 -766 329 -970 81 -68 255 -155 376 -189 95 -27 248 -55 303 -55 17 0
32 -2 32 -5 0 -3 -23 -40 -50 -81 -86 -127 -204 -266 -318 -375 -396 -380
-833 -483 -1349 -318 -51 17 -122 43 -157 58 l-62 28 -42 105 c-129 324 -180
650 -169 1088 9 352 56 711 117 885 120 341 308 747 450 973 251 400 563 701
895 862 119 58 250 109 285 109 19 1 52 -27 140 -116z m36670 87 c12 -16 18
-30 13 -30 -4 0 -16 14 -25 30 -22 39 -15 39 12 0z m-37 -1268 c433 -697 796
-1281 807 -1297 l19 -31 -770 -463 c-424 -255 -774 -460 -778 -455 -14 17
-331 513 -331 519 0 3 24 20 53 39 28 18 189 120 357 226 168 106 322 206 342
222 21 16 50 55 67 90 38 74 42 167 12 233 -35 78 -724 1191 -760 1228 -67 72
-162 104 -253 87 -38 -8 -152 -65 -428 -217 -206 -113 -393 -217 -416 -229
l-40 -24 -128 201 c-71 110 -126 202 -125 204 2 2 108 65 234 140 127 75 343
204 480 286 138 81 385 229 550 328 165 98 305 179 310 180 6 0 365 -570 798
-1267z m-17434 1071 c-75 -171 -267 -552 -374 -743 -351 -628 -748 -1186
-1239 -1740 -254 -287 -718 -735 -1031 -996 -1129 -942 -2476 -1622 -3889
-1964 -148 -36 -487 -110 -504 -110 -4 0 49 31 118 68 746 408 1474 981 2071
1629 845 919 1451 1972 1773 3083 26 87 9 83 186 47 243 -51 354 -61 655 -61
366 0 579 28 905 121 471 134 966 410 1308 729 37 34 68 61 70 59 2 -2 -20
-57 -49 -122z m17565 89 c3 -5 -1 -9 -9 -9 -8 0 -12 4 -9 9 3 4 7 8 9 8 2 0 6
-4 9 -8z m32 -22 c0 -12 -4 -16 -9 -11 -5 5 -6 14 -3 20 10 15 12 14 12 -9z
m-28 -25 c-3 -3 -9 2 -12 12 -6 14 -5 15 5 6 7 -7 10 -15 7 -18z m139 -231
c-3 -3 -15 10 -27 28 l-23 33 28 -28 c15 -16 25 -31 22 -33z m41 21 c-3 -3 -9
2 -12 12 -6 14 -5 15 5 6 7 -7 10 -15 7 -18z m-21561 -219 c57 -31 129 -68
160 -82 32 -14 59 -27 61 -29 2 -2 -11 -52 -28 -111 -456 -1577 -1558 -3058
-2995 -4025 -751 -506 -1514 -839 -2369 -1036 -180 -41 -252 -44 -541 -23
-555 41 -1087 126 -1640 262 l-170 42 220 18 c1010 80 1940 340 2880 803 501
248 942 521 1420 879 1211 909 2183 2138 2659 3363 l48 121 96 -62 c54 -34
143 -88 199 -120z m21565 156 c3 -10 0 -19 -6 -19 -7 0 -13 11 -14 24 -2 27
13 23 20 -5z m118 -207 c0 -8 -2 -15 -4 -15 -2 0 -6 7 -10 15 -3 8 -1 15 4 15
6 0 10 -7 10 -15z m-35711 -690 c92 -162 217 -372 293 -490 l58 -90 -127 -125
c-279 -272 -563 -465 -809 -549 -132 -45 -259 -57 -436 -43 -289 24 -386 75
-424 222 -24 93 -15 370 14 450 42 118 123 251 249 410 137 174 573 591 812
779 l54 42 122 -238 c67 -131 154 -296 194 -368z m35811 533 c0 7 4 10 10 7 6
-4 5 -11 -3 -19 -12 -14 -27 -4 -27 19 0 6 5 3 10 -5 7 -11 10 -11 10 -2z m95
-49 c11 -17 -1 -21 -15 -4 -8 9 -8 15 -2 15 6 0 14 -5 17 -11z m-44 -46 c13
-16 12 -17 -3 -4 -10 7 -18 15 -18 17 0 8 8 3 21 -13z m59 -19 c0 -8 -19 -13
-24 -6 -3 5 1 9 9 9 8 0 15 -2 15 -3z m30 -127 c0 -7 -6 -3 -12 8 -6 11 -16
27 -22 35 -6 9 -1 5 12 -8 12 -13 22 -28 22 -35z m18 -42 c-3 -3 -9 2 -12 12
-6 14 -5 15 5 6 7 -7 10 -15 7 -18z m25 -20 c-3 -9 -8 -14 -10 -11 -3 3 -2 9
2 15 9 16 15 13 8 -4z m4077 -480 c557 -981 1111 -1964 1879 -3331 105 -187
191 -345 191 -350 -1 -5 -17 -21 -38 -35 -20 -14 -188 -134 -372 -266 -2325
-1664 -4963 -3399 -7295 -4798 -412 -247 -950 -565 -957 -565 -2 0 -2 70 0
156 5 226 -25 391 -108 599 -55 140 22 18 -1133 1775 -709 1077 -1213 1845
-1235 1881 l-22 36 358 215 c196 118 1338 805 2537 1525 1199 720 2477 1489
2840 1708 363 219 941 567 1285 774 344 207 895 538 1225 737 330 199 603 359
606 355 4 -3 112 -190 239 -416z m-4026 389 c3 -8 2 -12 -4 -9 -6 3 -10 10
-10 16 0 14 7 11 14 -7z m23 -23 c0 -11 -5 -18 -9 -15 -4 3 -5 11 -1 19 7 21
12 19 10 -4z m-3593 -129 c38 -59 132 -206 209 -327 77 -121 152 -233 166
-248 62 -68 165 -103 255 -86 61 11 9 -16 741 390 125 70 140 76 150 61 59
-86 395 -645 393 -652 -2 -5 -163 -110 -358 -233 -195 -123 -376 -243 -402
-266 -52 -47 -82 -103 -92 -172 -11 -73 10 -139 73 -236 177 -270 451 -702
451 -709 -1 -9 -1093 -669 -1107 -669 -3 0 -27 33 -52 72 -25 40 -80 126 -121
190 -41 65 -180 285 -309 488 -814 1284 -1134 1789 -1152 1820 l-19 31 233
137 c127 76 374 223 547 326 173 104 317 189 320 190 3 0 36 -47 74 -107z
m5396 -156 c0 -2 -7 -7 -16 -10 -8 -3 -12 -2 -9 4 6 10 25 14 25 6z m30 -10
c0 -2 -7 -7 -16 -10 -8 -3 -12 -2 -9 4 6 10 25 14 25 6z m-160 -95 c0 -5 -7
-12 -16 -15 -14 -5 -15 -4 -4 9 14 17 20 19 20 6z m-45 -32 c-4 -5 -12 -9 -18
-8 -9 0 -8 2 1 6 6 2 9 10 6 15 -4 7 -2 8 5 4 6 -4 9 -12 6 -17z m-1355 -29
c6 -11 8 -20 6 -20 -3 0 -10 9 -16 20 -6 11 -8 20 -6 20 3 0 10 -9 16 -20z
m33 5 c-3 -9 -8 -14 -10 -11 -3 3 -2 9 2 15 9 16 15 13 8 -4z m0 -52 c-3 -7
-6 -13 -8 -13 -2 0 -5 6 -8 13 -3 8 1 14 8 14 7 0 11 -6 8 -14z m1117 -19 c0
-2 -9 0 -20 6 -11 6 -20 13 -20 16 0 2 9 0 20 -6 11 -6 20 -13 20 -16z m5 -17
c4 5 5 2 1 -5 -4 -7 -12 -10 -17 -6 -5 3 -18 0 -27 -8 -15 -11 -15 -11 -5 3
10 12 10 18 0 29 -6 7 0 5 14 -4 14 -9 29 -13 34 -9z m-180 -59 c-30 -16 -31
-18 -15 -28 9 -6 10 -10 3 -10 -22 0 -26 23 -8 37 11 7 24 13 29 13 6 0 2 -6
-9 -12z m95 2 c-8 -5 -19 -10 -25 -10 -5 0 -3 5 5 10 8 5 20 10 25 10 6 0 3
-5 -5 -10z m-55 -30 c-3 -5 -16 -15 -28 -21 -21 -10 -21 -9 2 10 25 23 36 27
26 11z m-865 -71 c15 -28 5 -23 -15 7 -9 15 -12 23 -6 20 6 -4 16 -16 21 -27z
m770 17 c0 -3 -4 -8 -10 -11 -5 -3 -10 -1 -10 4 0 6 5 11 10 11 6 0 10 -2 10
-4z m-150 -70 c0 -2 -7 -7 -16 -10 -8 -3 -12 -2 -9 4 6 10 25 14 25 6z m-11
-29 c-2 -1 -13 -9 -24 -17 -19 -14 -19 -14 -6 3 7 9 18 17 24 17 6 0 8 -1 6
-3z m-18214 -82 c840 -81 1604 -349 2422 -851 629 -386 1263 -856 1823 -1352
153 -136 613 -587 761 -747 721 -780 1241 -1602 1500 -2376 147 -440 208 -828
195 -1244 -5 -176 -11 -233 -36 -356 -105 -517 -344 -1024 -627 -1330 -81 -87
-553 -436 -1053 -779 -313 -215 -663 -441 -670 -433 -4 5 -26 87 -50 183 -280
1150 -738 2117 -1323 2795 -125 145 -366 379 -499 486 -211 168 -464 326 -658
410 -52 23 -98 45 -103 48 -4 4 33 57 83 117 119 142 273 344 268 350 -5 4
-241 -95 -418 -176 -284 -130 -682 -338 -954 -498 l-119 -70 -82 108 c-413
543 -901 1094 -1325 1496 -118 112 -216 202 -218 200 -2 -3 32 -58 76 -123
103 -154 326 -526 437 -728 179 -328 484 -966 584 -1222 l20 -52 -97 -67 c-53
-37 -137 -98 -186 -136 l-89 -69 -32 73 c-114 262 -261 473 -480 693 -98 98
-150 142 -213 178 -424 248 -967 145 -1543 -294 l-80 -60 -67 49 c-183 134
-416 222 -717 269 -81 13 -171 17 -345 17 -206 0 -248 -3 -340 -23 -299 -63
-603 -215 -910 -451 -128 -98 -454 -427 -571 -575 -487 -614 -753 -1296 -795
-2032 l-7 -118 -1264 -719 c-696 -395 -1269 -714 -1273 -710 -16 17 -187 796
-245 1114 -15 80 -38 183 -51 230 -228 810 -349 1526 -415 2460 -3 45 -88
-419 -129 -705 -56 -394 -95 -839 -107 -1212 -4 -134 -10 -213 -16 -213 -17 0
-332 85 -577 156 -1383 400 -2703 947 -3945 1637 -267 148 -735 423 -831 488
l-42 28 152 153 c522 525 924 1265 1204 2218 13 44 23 64 33 62 8 -2 93 -35
189 -74 1507 -609 3107 -850 4761 -718 994 80 1983 311 2929 687 1853 735
3444 1982 4623 3621 82 114 104 138 130 144 61 13 373 49 507 58 183 12 610 4
805 -15z m18085 5 c0 -5 -5 -10 -11 -10 -5 0 -7 5 -4 10 3 6 8 10 11 10 2 0 4
-4 4 -10z m-76 -52 c-3 -4 -12 -8 -20 -8 -8 0 -14 4 -14 8 0 4 9 8 19 8 11 0
17 -4 15 -8z m-264 -18 c6 -11 8 -20 6 -20 -3 0 -10 9 -16 20 -6 11 -8 20 -6
20 3 0 10 -9 16 -20z m215 10 c3 -5 1 -10 -4 -10 -6 0 -11 5 -11 10 0 6 2 10
4 10 3 0 8 -4 11 -10z m-25 -34 c0 -3 -4 -8 -10 -11 -5 -3 -10 -1 -10 4 0 6 5
11 10 11 6 0 10 -2 10 -4z m-115 -55 c3 -5 2 -12 -3 -15 -5 -3 -9 1 -9 9 0 17
3 19 12 6z m-6025 -66 c-7 -8 -18 -15 -24 -15 -6 0 -2 7 8 15 25 19 32 19 16
0z m64 -49 c8 3 17 -3 20 -13 6 -14 5 -15 -5 -6 -8 8 -17 9 -24 3 -7 -6 -11
-2 -12 13 0 12 1 17 4 10 2 -7 10 -10 17 -7z m-187 -21 c0 -8 -4 -12 -9 -9 -5
3 -6 10 -3 15 9 13 12 11 12 -6z m234 -32 c13 -16 12 -17 -3 -4 -10 7 -18 15
-18 17 0 8 8 3 21 -13z m-47 -9 c3 -8 2 -12 -4 -9 -6 3 -10 10 -10 16 0 14 7
11 14 -7z m-264 -9 c-7 -8 -20 -15 -29 -15 -11 0 -8 5 9 14 33 19 35 19 20 1z
m30 -5 c0 -5 -5 -10 -11 -10 -5 0 -7 5 -4 10 3 6 8 10 11 10 2 0 4 -4 4 -10z
m261 -13 c-10 -9 -11 -8 -5 6 3 10 9 15 12 12 3 -3 0 -11 -7 -18z m43 5 c3 -5
-1 -9 -9 -9 -8 0 -12 4 -9 9 3 4 7 8 9 8 2 0 6 -4 9 -8z m-457 -49 c-4 -3 -1
-13 6 -22 11 -14 10 -14 -5 -2 -16 12 -16 31 -1 31 4 0 3 -3 0 -7z m-32 -23
c-3 -5 -12 -10 -18 -10 -7 0 -6 4 3 10 19 12 23 12 15 0z m-29468 -133 c440
-570 1031 -1176 1608 -1648 512 -420 1054 -783 1650 -1104 105 -57 211 -113
238 -126 26 -13 47 -30 47 -37 0 -22 -83 -299 -134 -447 -284 -828 -691 -1476
-1168 -1859 -31 -25 -54 -36 -64 -32 -22 8 -282 186 -519 355 -776 552 -1549
1183 -2278 1861 -304 282 -338 312 -385 333 -44 19 -68 22 -402 47 -616 47
-1176 186 -1585 393 l-80 40 119 19 c439 66 809 266 1166 628 248 251 454 547
617 886 l54 113 144 71 c242 118 531 326 760 544 55 52 102 95 105 95 3 0 51
-59 107 -132z m29433 73 c-8 -5 -19 -10 -25 -10 -5 0 -3 5 5 10 8 5 20 10 25
10 6 0 3 -5 -5 -10z m631 -73 c-10 -9 -11 -8 -5 6 3 10 9 15 12 12 3 -3 0 -11
-7 -18z m48 -41 c9 -11 9 -16 0 -22 -8 -4 -9 -3 -5 4 4 7 2 12 -3 12 -6 0 -11
5 -11 10 0 14 5 13 19 -4z m61 -101 c14 -19 14 -19 -2 -6 -10 7 -18 18 -18 24
0 6 1 8 3 6 1 -2 9 -13 17 -24z m-34 -52 c-7 -7 -26 7 -26 19 0 6 6 6 15 -2 9
-7 13 -15 11 -17z m88 -29 c3 -8 2 -12 -4 -9 -6 3 -10 10 -10 16 0 14 7 11 14
-7z m-570 -99 c3 -8 1 -15 -4 -15 -6 0 -10 7 -10 15 0 8 2 15 4 15 2 0 6 -7
10 -15z m676 -78 c0 -5 -4 -5 -10 -2 -5 3 -10 14 -10 23 0 15 2 15 10 2 5 -8
10 -19 10 -23z m17 -119 c-3 -8 -6 -5 -6 6 -1 11 2 17 5 13 3 -3 4 -12 1 -19z
m55 8 c7 4 8 2 4 -5 -9 -13 -26 -5 -25 12 0 9 2 8 6 -1 2 -6 10 -9 15 -6z m41
-121 c-3 -9 -8 -14 -10 -11 -3 3 -2 9 2 15 9 16 15 13 8 -4z m-4419 -6 c90
-12 142 -29 339 -111 l147 -61 -344 -256 c-527 -392 -726 -540 -1031 -765
-154 -114 -315 -238 -357 -276 -174 -159 -290 -375 -328 -613 -13 -80 -9 -323
5 -362 5 -11 -36 43 -90 120 -103 146 -227 314 -353 475 -41 52 -90 126 -108
163 -81 170 -67 376 38 539 78 120 46 98 1089 741 272 167 522 318 555 335
135 68 286 93 438 71z m4467 -6 c13 -16 12 -17 -3 -4 -10 7 -18 15 -18 17 0 8
8 3 21 -13z m-37 -31 c3 -5 -1 -9 -9 -9 -8 0 -12 4 -9 9 3 4 7 8 9 8 2 0 6 -4
9 -8z m-554 -48 c0 -8 -4 -12 -10 -9 -5 3 -10 10 -10 16 0 5 5 9 10 9 6 0 10
-7 10 -16z m625 -42 c-3 -3 -11 0 -18 7 -9 10 -8 11 6 5 10 -3 15 -9 12 -12z
m87 -86 c7 4 8 2 4 -5 -9 -13 -26 -5 -25 12 0 9 2 8 6 -1 2 -6 10 -9 15 -6z
m38 -40 c0 -3 -4 -8 -10 -11 -5 -3 -10 -1 -10 4 0 6 5 11 10 11 6 0 10 -2 10
-4z m21 -33 c13 -16 12 -17 -3 -4 -10 7 -18 15 -18 17 0 8 8 3 21 -13z m19
-58 c6 18 7 18 12 -2 3 -12 1 -20 -6 -19 -19 3 -36 17 -36 29 0 7 6 3 12 -8
11 -19 11 -19 18 0z m-602 -70 c-3 -3 -9 2 -12 12 -6 14 -5 15 5 6 7 -7 10
-15 7 -18z m670 -90 c-3 -3 -9 2 -12 12 -6 14 -5 15 5 6 7 -7 10 -15 7 -18z
m48 -17 c3 -4 -1 -5 -10 -4 -8 1 -18 5 -22 8 -3 4 1 5 10 4 8 -1 18 -5 22 -8z
m-3335 -30 c30 -14 71 -39 91 -57 20 -17 151 -206 291 -419 140 -213 458 -697
707 -1077 250 -379 570 -868 713 -1085 517 -785 472 -711 486 -799 18 -114
-18 -235 -96 -315 -49 -51 -2093 -1414 -2156 -1438 -66 -25 -189 -24 -259 2
-123 46 -116 37 -581 809 -776 1290 -1498 2500 -1520 2548 -17 38 -22 67 -22
138 0 81 3 97 32 158 20 43 50 84 80 112 26 25 463 353 970 729 613 455 941
692 975 705 75 30 212 25 289 -11z m3365 -18 c0 -12 -4 -16 -9 -11 -5 5 -6 14
-3 20 10 15 12 14 12 -9z m48 -66 c3 -8 2 -12 -4 -9 -6 3 -10 10 -10 16 0 14
7 11 14 -7z m34 -74 c-7 -11 -14 -17 -17 -15 -2 3 1 11 7 18 7 8 8 18 4 22 -4
5 -1 5 5 1 10 -5 10 -11 1 -26z m26 -8 c3 -5 -1 -9 -9 -9 -8 0 -12 4 -9 9 3 4
7 8 9 8 2 0 6 -4 9 -8z m56 -92 c6 -11 8 -20 6 -20 -3 0 -10 9 -16 20 -6 11
-8 20 -6 20 3 0 10 -9 16 -20z m24 -41 c3 -3 -5 -5 -19 -5 -13 0 -22 3 -19 7
4 8 30 6 38 -2z m27 -41 c11 -21 11 -22 -4 -9 -10 7 -17 17 -17 22 0 15 9 10
21 -13z m-54 -30 c-3 -8 -6 -5 -6 6 -1 11 2 17 5 13 3 -3 4 -12 1 -19z m77
-54 c3 -8 2 -12 -4 -9 -6 3 -10 10 -10 16 0 14 7 11 14 -7z m86 -84 c6 -11 8
-20 6 -20 -3 0 -10 9 -16 20 -6 11 -8 20 -6 20 3 0 10 -9 16 -20z m41 -67 c13
-16 12 -17 -3 -4 -10 7 -18 15 -18 17 0 8 8 3 21 -13z m79 -125 c0 -6 8 -21
18 -32 17 -21 17 -21 -5 -3 -20 18 -40 63 -22 51 5 -3 9 -10 9 -16z m-30 -28
c0 -5 -7 -10 -16 -10 -8 0 -12 5 -9 10 3 6 10 10 16 10 5 0 9 -4 9 -10z m80
-54 c0 -2 -8 -10 -17 -17 -16 -13 -17 -12 -4 4 13 16 21 21 21 13z m-9 -45
c-6 -10 -7 -22 -3 -26 4 -5 1 -5 -6 -1 -9 5 -9 12 -2 27 6 10 13 19 16 19 2 0
0 -8 -5 -19z m73 -97 c3 -8 2 -12 -4 -9 -6 3 -10 10 -10 16 0 14 7 11 14 -7z
m41 -24 c10 -11 14 -20 9 -20 -5 0 -15 9 -22 20 -7 11 -11 20 -9 20 2 0 12 -9
22 -20z m-25 -20 c0 -5 -5 -10 -11 -10 -5 0 -7 5 -4 10 3 6 8 10 11 10 2 0 4
-4 4 -10z m-9 -43 c-10 -9 -11 -8 -5 6 3 10 9 15 12 12 3 -3 0 -11 -7 -18z
m79 -7 c6 -11 7 -20 3 -19 -21 4 -34 -2 -27 -12 4 -8 0 -8 -15 0 -12 7 -27 9
-33 5 -7 -4 -8 -3 -4 5 4 6 15 9 24 7 22 -7 47 8 38 23 -4 6 -5 11 -2 11 3 0
10 -9 16 -20z m-80 -74 c0 -2 -8 -10 -17 -17 -16 -13 -17 -12 -4 4 13 16 21
21 21 13z m-371 -219 c-2 -1 -14 -10 -26 -20 -16 -14 -23 -15 -29 -6 -4 7 -3
10 3 6 6 -4 16 0 23 8 7 8 17 15 23 15 6 0 8 -1 6 -3z m10703 -942 c80 -143
179 -321 221 -395 41 -74 161 -290 267 -480 247 -442 974 -1751 1250 -2250
117 -212 256 -464 310 -560 376 -677 1278 -2316 1323 -2405 48 -96 93 -227
119 -348 31 -143 30 -414 -1 -564 -70 -337 -251 -631 -520 -845 -83 -67 -960
-653 -1411 -944 -368 -237 -757 -484 -1139 -720 l-294 -182 -2162 3491 c-1189
1921 -2185 3528 -2213 3572 -28 44 -48 83 -44 87 4 3 318 213 697 466 626 417
1016 681 1575 1064 307 210 1091 760 1490 1045 315 225 366 258 376 244 6 -9
76 -133 156 -276z m-16027 -1850 c346 -577 657 -1099 693 -1158 35 -60 61
-111 57 -115 -4 -4 -79 -7 -168 -6 -187 0 -264 16 -406 84 -167 80 -286 187
-402 359 -61 91 -70 109 -65 137 9 44 -11 411 -29 553 -40 307 -106 590 -210
896 -39 115 -82 235 -94 265 -12 30 -18 51 -13 45 5 -5 292 -482 637 -1060z
m4882 -528 c366 -556 693 -1051 788 -1197 34 -52 151 -230 260 -395 109 -165
213 -332 232 -372 55 -120 76 -227 70 -368 -6 -143 -22 -210 -81 -330 -62
-124 -116 -187 -301 -348 -154 -134 -872 -757 -1235 -1071 -96 -83 -262 -228
-370 -321 -107 -94 -330 -288 -495 -431 -165 -143 -408 -354 -540 -468 -132
-115 -302 -262 -377 -327 -75 -66 -140 -119 -145 -119 -4 0 -67 69 -139 153
-156 182 -732 856 -929 1087 -77 91 -262 307 -410 480 -149 173 -285 333 -302
355 -58 70 -63 80 217 -450 241 -457 330 -625 377 -715 31 -58 97 -184 148
-280 437 -827 437 -827 427 -833 -15 -10 -773 -200 -777 -195 -3 2 -31 110
-64 239 -317 1258 -1047 2514 -2085 3586 -75 77 -136 143 -136 147 0 3 26 43
59 88 170 240 344 589 441 883 18 55 35 103 39 107 3 4 43 -19 88 -51 293
-209 691 -320 1048 -291 64 6 285 39 493 74 207 36 462 79 565 96 187 31 309
66 410 117 27 13 528 344 1115 735 1059 705 1068 711 1167 813 55 57 102 104
105 104 3 0 154 -226 337 -502z m-11184 326 c130 -43 354 -153 480 -237 838
-554 1472 -1620 1841 -3094 51 -202 96 -399 96 -418 0 -18 -485 -308 -935
-559 -716 -399 -1327 -699 -1991 -975 -462 -192 -923 -311 -1454 -375 -426
-50 -977 -47 -1425 10 -808 103 -1616 385 -2265 793 -791 497 -1300 1139
-1434 1812 -51 258 -55 461 -15 740 67 472 290 968 619 1380 192 240 501 516
709 633 239 135 393 174 639 164 309 -13 524 -76 631 -186 45 -46 52 -63 168
-382 67 -184 148 -404 179 -489 50 -137 57 -164 57 -232 1 -66 -4 -85 -32
-142 -34 -70 -91 -127 -176 -178 l-50 -30 55 5 c141 14 271 93 355 217 91 134
98 178 115 715 l11 340 62 58 c301 280 617 458 812 456 70 0 113 -18 189 -78
184 -147 334 -367 424 -622 32 -92 72 -261 72 -307 0 -15 5 -33 10 -38 6 -6
41 -245 78 -532 37 -287 69 -522 72 -522 3 0 97 181 210 401 177 346 210 404
240 423 344 222 512 344 730 531 166 142 438 397 635 594 88 89 164 161 168
161 5 0 59 -17 120 -37z m16610 -1930 c101 -159 265 -418 372 -588 49 -77 119
-187 155 -245 37 -58 165 -260 285 -450 120 -190 325 -515 457 -722 131 -208
238 -381 238 -386 0 -10 -198 -148 -203 -141 -2 2 -76 119 -164 259 -88 140
-279 442 -423 670 -145 228 -289 456 -320 505 -100 159 -243 384 -405 640
-215 339 -275 435 -275 440 0 6 193 135 201 135 4 0 41 -53 82 -117z m-638
-738 c191 -302 429 -678 528 -835 99 -157 266 -420 370 -585 105 -165 231
-365 282 -445 51 -80 458 -723 905 -1430 447 -707 881 -1393 965 -1525 83
-132 217 -343 297 -470 80 -126 269 -427 422 -669 152 -241 276 -439 274 -441
-8 -5 -422 -233 -583 -320 -99 -54 -232 -126 -295 -160 -498 -271 -1104 -585
-1830 -949 -656 -328 -721 -356 -915 -398 -145 -31 -407 -31 -555 1 -331 71
-609 232 -817 474 -75 87 -149 197 -1261 1862 -893 1338 -1382 2078 -2036
3079 l-306 469 6 66 c4 36 9 71 13 77 6 11 1143 1002 1226 1069 22 17 141 89
265 160 701 400 1843 1080 2524 1503 l130 81 22 -32 c11 -18 178 -279 369
-582z m-11049 -417 c946 -968 1645 -2152 1939 -3283 126 -482 178 -889 178
-1370 0 -357 -29 -657 -94 -980 -157 -786 -488 -1528 -968 -2169 -175 -232
-309 -386 -540 -617 -455 -455 -848 -741 -1546 -1127 -639 -353 -1253 -642
-1775 -837 -195 -73 -216 -83 -270 -137 -67 -67 -95 -135 -95 -238 0 -76 4
-93 31 -148 l31 -63 -49 -86 c-251 -437 -676 -900 -1174 -1280 -908 -690
-2144 -1177 -3609 -1423 -99 -16 -189 -30 -201 -30 -24 0 -153 172 -359 481
-525 785 -859 1516 -994 2173 -56 269 -66 377 -66 671 1 381 22 498 170 935
92 268 226 606 357 894 55 122 174 397 264 613 202 484 245 582 406 907 383
772 770 1377 1252 1955 65 79 144 171 175 205 98 109 101 113 41 71 -813 -574
-1481 -1290 -2133 -2285 -415 -634 -662 -1144 -921 -1898 -31 -90 -58 -168
-61 -172 -10 -16 -401 237 -682 442 -635 463 -1251 1053 -1802 1728 -61 74
-111 140 -111 145 0 6 60 36 133 67 133 58 902 395 1422 623 154 68 467 205
695 305 228 100 485 212 570 250 85 37 490 215 900 395 410 180 837 367 950
417 113 50 439 193 725 318 286 125 619 272 740 325 121 53 250 114 287 136
340 200 549 569 551 970 l0 116 101 33 c350 113 1379 584 2024 927 1065 564
2277 1328 3232 2036 85 63 158 116 161 116 3 1 55 -50 115 -111z m-12626 -314
c0 -9 23 -77 51 -152 231 -622 677 -1188 1314 -1667 757 -569 1855 -989 2917
-1116 l97 -11 15 -37 c8 -20 46 -101 84 -181 80 -167 96 -224 96 -335 -1 -147
-56 -277 -165 -386 -75 -76 -85 -81 -509 -267 -151 -66 -507 -223 -790 -347
-283 -125 -521 -228 -528 -228 -7 -1 -105 165 -228 388 -863 1563 -1035 1869
-1062 1898 -47 50 -127 81 -201 80 -46 -1 -328 -59 -941 -196 -481 -108 -878
-193 -881 -189 -6 6 -317 665 -830 1759 -34 74 -44 105 -36 110 78 51 1584
899 1590 896 4 -2 7 -11 7 -19z m-1616 -2204 c469 -1000 487 -1037 536 -1082
53 -49 122 -78 186 -78 17 0 438 90 934 200 497 110 904 199 905 198 3 -4 368
-666 420 -763 21 -38 158 -286 303 -550 352 -638 372 -675 372 -683 0 -4 -66
-36 -148 -71 -81 -36 -338 -149 -572 -251 -2043 -898 -1925 -850 -2070 -850
-142 0 -292 55 -404 146 -35 28 -108 114 -193 227 -550 731 -1011 1658 -1340
2692 -128 405 -251 890 -260 1025 -11 177 54 347 181 473 64 64 104 90 366
239 162 92 295 166 296 165 1 -1 220 -468 488 -1037z m27904 553 c82 -131 225
-357 317 -503 93 -146 205 -323 250 -395 45 -71 142 -224 215 -340 73 -115
159 -250 190 -300 31 -49 283 -448 560 -885 571 -902 1017 -1607 1334 -2110
120 -190 260 -410 311 -490 50 -80 132 -208 180 -285 49 -77 119 -187 155
-245 81 -127 955 -1508 1056 -1670 40 -63 71 -117 68 -121 -6 -10 -204 -132
-208 -128 -1 2 -53 85 -116 184 -116 184 -648 1025 -1100 1740 -139 220 -409
645 -598 945 -190 300 -442 698 -560 885 -119 187 -284 448 -367 580 -83 132
-238 377 -345 545 -106 168 -246 388 -310 490 -64 102 -274 433 -465 735 -192
303 -389 615 -440 695 -50 80 -180 286 -289 458 -109 172 -196 315 -193 318
13 13 192 134 198 134 3 0 74 -107 157 -237z m-8566 -1060 c-73 -138 -340
-735 -449 -1003 -491 -1209 -787 -2404 -819 -3310 -8 -199 -11 -179 107 -575
233 -775 629 -1817 1018 -2675 34 -74 61 -137 61 -140 -1 -18 -270 307 -331
400 -198 301 -756 1308 -1236 2230 -312 599 -431 830 -713 1384 l-183 359 12
41 c107 371 186 786 223 1166 14 151 18 751 5 951 l-8 126 108 26 c174 43 825
209 1123 287 151 39 290 80 311 90 20 10 96 71 170 136 169 147 172 150 304
264 61 52 112 97 115 100 3 3 37 32 75 65 39 33 79 68 89 78 11 9 21 17 23 17
2 0 0 -8 -5 -17z m-11424 -195 c-21 -95 -94 -204 -174 -259 -25 -17 -228 -111
-452 -209 l-407 -178 -6 111 c-9 153 -40 298 -89 412 l-19 43 107 6 c427 24
607 42 857 85 215 38 195 39 183 -11z m27103 -3245 c61 -38 118 -73 127 -78
65 -39 313 -212 378 -263 16 -13 61 -46 99 -74 39 -29 72 -54 75 -58 3 -3 25
-21 50 -40 25 -19 63 -50 86 -69 22 -20 67 -58 99 -86 194 -164 481 -447 655
-645 41 -47 77 -87 80 -90 16 -16 124 -146 175 -210 33 -41 64 -80 70 -87 5
-6 21 -28 35 -48 14 -19 45 -61 69 -93 54 -72 206 -291 247 -357 17 -27 61
-99 99 -160 37 -60 78 -128 90 -150 12 -22 50 -91 84 -153 35 -62 61 -116 57
-119 -3 -3 -34 5 -68 18 -134 51 -284 23 -377 -70 -64 -64 -94 -132 -99 -226
-7 -130 14 -170 167 -329 197 -205 341 -370 277 -317 -8 7 -27 16 -43 21 -15
5 -71 25 -123 45 -52 20 -99 37 -105 39 -5 2 -17 6 -25 9 -8 3 -60 22 -115 42
-55 20 -111 41 -125 47 -21 8 -276 103 -335 123 -15 6 -14 3 5 -11 14 -10 29
-18 33 -16 5 1 6 -1 3 -6 -3 -5 32 -47 77 -93 45 -46 114 -120 152 -163 39
-44 77 -87 85 -95 8 -9 44 -52 78 -96 35 -44 71 -89 80 -100 115 -139 462
-659 462 -692 0 -5 12 -25 26 -46 29 -44 187 -357 232 -462 246 -576 383
-1045 472 -1620 12 -77 27 -174 34 -216 l12 -77 -71 -4 c-253 -17 -399 -278
-281 -501 18 -34 52 -97 75 -139 l42 -77 -28 8 c-15 5 -107 19 -203 31 -96 12
-218 28 -270 35 -52 7 -96 12 -98 10 -2 -2 12 -27 31 -56 100 -159 291 -548
423 -864 20 -49 41 -94 46 -99 4 -6 8 -16 8 -24 0 -8 6 -28 14 -45 34 -74 164
-450 212 -612 54 -184 65 -224 109 -392 242 -936 363 -1924 368 -3005 l2 -376
103 -51 c57 -28 108 -48 114 -45 6 4 8 3 5 -2 -3 -6 42 -32 100 -59 l105 -50
-7 -122 c-3 -67 -10 -133 -13 -147 l-7 -25 -290 132 c-507 229 -1122 542
-1581 802 -1519 864 -2698 1849 -3402 2841 -162 229 -323 511 -391 687 -15 41
-42 95 -59 119 -38 55 -121 112 -186 129 -72 18 -181 7 -241 -24 -106 -56
-132 -94 -245 -352 -218 -499 -314 -715 -321 -715 -13 0 -316 318 -420 440
-543 641 -953 1425 -1208 2310 -61 215 -118 468 -142 635 -18 129 -80 225
-181 280 -44 24 -68 30 -140 33 -116 6 -172 -14 -250 -88 -52 -50 -71 -80
-189 -315 -72 -143 -135 -264 -139 -268 -9 -10 -204 376 -278 551 -285 673
-450 1363 -524 2192 -17 186 -18 1043 -1 1080 8 20 31 33 99 59 516 194 1178
481 1730 751 l284 138 43 -66 c23 -37 220 -348 437 -692 217 -343 413 -643
435 -665 59 -60 124 -87 220 -93 63 -3 91 0 130 15 28 11 223 128 435 260 212
132 619 385 905 563 286 177 536 338 556 357 94 89 126 221 87 353 -9 28 -276
468 -754 1240 -29 47 -55 92 -58 100 -4 10 14 27 57 54 276 175 1091 730 1271
866 28 21 54 39 59 39 4 1 57 -29 118 -66z m635 -29 c18 -14 18 -14 -6 -3 -31
14 -36 19 -24 19 6 0 19 -7 30 -16z m-6006 -112 c0 -4 -10 -13 -22 -21 -23
-14 -23 -14 -4 8 20 22 26 25 26 13z m80 -27 c0 -5 -5 -3 -10 5 -5 8 -10 20
-10 25 0 6 5 3 10 -5 5 -8 10 -19 10 -25z m-180 -29 c0 -2 -7 -7 -16 -10 -8
-3 -12 -2 -9 4 6 10 25 14 25 6z m248 -61 c-3 -3 -9 2 -12 12 -6 14 -5 15 5 6
7 -7 10 -15 7 -18z m-328 4 c12 -8 10 -9 -9 -4 -16 5 -21 4 -17 -4 5 -7 1 -8
-9 -4 -13 5 -14 7 -3 14 17 11 20 11 38 -2z m65 -9 c-3 -5 -14 -10 -23 -9 -14
0 -13 2 3 9 27 11 27 11 20 0z m278 -38 c-3 -7 -9 -10 -12 -5 -3 4 -10 11 -15
15 -4 4 1 6 12 5 12 -1 18 -6 15 -15z m-488 -22 c-3 -5 -12 -10 -18 -10 -7 0
-6 4 3 10 19 12 23 12 15 0z m518 -17 c-4 -10 -2 -14 5 -9 6 3 13 2 16 -3 4
-5 -2 -8 -11 -7 -10 2 -18 12 -19 24 -1 12 2 19 7 16 4 -2 5 -12 2 -21z m-578
-13 c-3 -5 -12 -10 -18 -10 -7 0 -6 4 3 10 19 12 23 12 15 0z m-94 -63 c-10
-9 -11 -8 -5 6 3 10 9 15 12 12 3 -3 0 -11 -7 -18z m710 -44 c-12 -20 -14 -14
-5 12 4 9 9 14 11 11 3 -2 0 -13 -6 -23z m50 -5 c8 -15 8 -18 0 -14 -6 4 -16
16 -22 28 -8 15 -8 18 0 14 6 -4 16 -16 22 -28z m-841 18 c0 -2 -8 -10 -17
-17 -16 -13 -17 -12 -4 4 13 16 21 21 21 13z m-40 -20 c0 -2 -12 -11 -27 -20
l-28 -17 24 20 c23 21 31 25 31 17z m75 -35 c-3 -6 -11 -11 -17 -11 -6 0 -6 6
2 15 14 17 26 13 15 -4z m-175 -26 c-7 -8 -25 -21 -40 -29 -40 -20 -28 5 13
26 40 21 42 21 27 3z m1032 -20 c2 3 5 -2 5 -10 0 -19 -14 -10 -27 18 -10 20
-10 20 3 5 8 -10 16 -16 19 -13z m-26 -35 c0 -12 -4 -16 -9 -11 -5 5 -6 14 -3
20 10 15 12 14 12 -9z m-1122 -8 c3 -5 -1 -9 -8 -9 -7 0 -30 -10 -50 -22 -37
-23 -48 -38 -21 -27 21 8 19 -1 -3 -13 -15 -8 -19 -6 -19 6 0 8 21 28 46 44
51 33 48 32 55 21z m103 -8 c-3 -3 -12 -4 -19 -1 -8 3 -5 6 6 6 11 1 17 -2 13
-5z m7514 -11 c13 -16 12 -17 -3 -4 -10 7 -18 15 -18 17 0 8 8 3 21 -13z
m-7636 -33 c0 -7 -6 -14 -13 -16 -7 -1 -8 0 -2 3 16 8 11 26 -6 19 -9 -3 -12
-2 -9 5 9 13 30 6 30 -11z m7716 -37 c13 -16 12 -17 -3 -4 -10 7 -18 15 -18
17 0 8 8 3 21 -13z m-6451 -29 c0 -8 -4 -14 -8 -14 -4 0 -8 9 -8 19 0 11 4 17
8 15 4 -3 8 -12 8 -20z m-1495 -32 c-3 -3 -11 0 -18 7 -9 10 -8 11 6 5 10 -3
15 -9 12 -12z m1521 6 c4 -7 3 -8 -4 -4 -7 4 -12 2 -12 -5 0 -7 -3 -10 -6 -6
-6 5 3 27 11 27 2 0 7 -5 11 -12z m-1466 -18 c0 -5 -2 -10 -4 -10 -3 0 -8 5
-11 10 -3 6 -1 10 4 10 6 0 11 -4 11 -10z m-11985 -367 c103 -203 237 -462
298 -578 60 -115 141 -271 179 -345 39 -74 85 -162 103 -195 18 -33 56 -105
85 -160 448 -850 924 -1689 1084 -1912 l66 -91 -60 -150 c-225 -570 -557
-1203 -913 -1737 -551 -827 -1225 -1534 -1960 -2058 -156 -111 -411 -275 -495
-319 l-44 -23 -40 45 c-265 294 -571 677 -775 970 -44 63 -196 282 -338 485
-142 204 -529 759 -860 1235 -331 476 -627 901 -658 945 -299 430 -378 548
-371 554 5 4 76 36 159 70 678 284 1695 823 2185 1159 898 615 1634 1442 2096
2354 32 65 62 118 65 118 3 0 90 -165 194 -367z m19990 337 c10 -11 16 -20 13
-20 -3 0 -13 9 -23 20 -10 11 -16 20 -13 20 3 0 13 -9 23 -20z m-6505 -4 c0
-2 -8 -10 -17 -17 -16 -13 -17 -12 -4 4 13 16 21 21 21 13z m-1719 -30 c-13
-15 -64 -29 -55 -15 3 5 14 9 24 9 10 0 22 5 25 10 3 6 9 10 12 10 3 0 0 -6
-6 -14z m-91 -41 c-6 -8 -20 -17 -31 -20 -11 -4 -17 -11 -14 -16 3 -5 -1 -6
-10 -3 -13 5 -8 12 22 29 46 28 49 29 33 10z m1884 -43 c3 -5 -1 -9 -9 -9 -8
0 -12 4 -9 9 3 4 7 8 9 8 2 0 6 -4 9 -8z m6596 -42 c0 -5 -2 -10 -4 -10 -3 0
-8 5 -11 10 -3 6 -1 10 4 10 6 0 11 -4 11 -10z m-6560 -35 c0 -5 -5 -3 -10 5
-5 8 -10 20 -10 25 0 6 5 3 10 -5 5 -8 10 -19 10 -25z m-48 -5 c-22 -26 -24
-25 -10 5 6 13 15 22 19 19 5 -2 1 -14 -9 -24z m-2054 12 c8 -6 2 -9 -18 -9
-20 0 -26 3 -18 9 7 4 15 8 18 8 3 0 11 -4 18 -8z m8742 -52 c0 -5 -2 -10 -4
-10 -3 0 -8 5 -11 10 -3 6 -1 10 4 10 6 0 11 -4 11 -10z m-6590 -20 c6 -11 8
-20 6 -20 -3 0 -10 9 -16 20 -6 11 -8 20 -6 20 3 0 10 -9 16 -20z m-2300 -7
c0 -1 -13 -9 -28 -17 -28 -14 -67 -7 -43 8 6 4 11 3 11 -3 0 -6 7 -8 15 -5 8
4 13 9 11 13 -3 4 4 7 15 7 10 0 19 -1 19 -3z m-146 -61 c2 -4 -4 -8 -14 -8
-10 0 -16 4 -14 8 3 4 9 8 14 8 5 0 11 -4 14 -8z m-43 -35 c-8 -8 -14 -7 -23
2 -11 10 -9 11 6 5 15 -6 17 -4 11 6 -6 9 -4 11 4 5 9 -5 10 -10 2 -18z m2546
-44 c1 -22 -1 -24 -8 -10 -6 9 -7 22 -4 27 9 14 10 13 12 -17z m6688 7 c10
-11 16 -20 13 -20 -3 0 -13 9 -23 20 -10 11 -16 20 -13 20 3 0 13 -9 23 -20z
m-9355 -5 c0 -2 -10 -9 -22 -15 -22 -11 -22 -10 -4 4 21 17 26 19 26 11z
m2691 -18 c-10 -9 -11 -8 -5 6 3 10 9 15 12 12 3 -3 0 -11 -7 -18z m84 -97 c9
-16 13 -30 11 -30 -3 0 -12 14 -21 30 -9 17 -13 30 -11 30 3 0 12 -13 21 -30z
m6686 3 c13 -16 12 -17 -3 -4 -17 13 -22 21 -14 21 2 0 10 -8 17 -17z m-9616
-3 c3 -6 -1 -7 -9 -4 -18 7 -21 14 -7 14 6 0 13 -4 16 -10z m45 6 c0 -3 -4 -8
-10 -11 -5 -3 -10 -1 -10 4 0 6 5 11 10 11 6 0 10 -2 10 -4z m-125 -14 c-22
-19 -85 -53 -85 -45 0 4 20 18 43 30 46 24 56 28 42 15z m3065 -82 c6 -11 8
-20 6 -20 -3 0 -10 9 -16 20 -6 11 -8 20 -6 20 3 0 10 -9 16 -20z m-3225 0
c-3 -5 -12 -10 -18 -10 -7 0 -6 4 3 10 19 12 23 12 15 0z m110 0 c3 -6 -1 -7
-9 -4 -18 7 -21 14 -7 14 6 0 13 -4 16 -10z m-150 -30 c-3 -5 -13 -10 -21 -10
-8 0 -14 -5 -14 -12 0 -6 -3 -8 -7 -4 -5 4 1 14 11 22 23 16 40 19 31 4z
m3265 -10 c0 -5 -5 -10 -11 -10 -5 0 -7 5 -4 10 3 6 8 10 11 10 2 0 4 -4 4
-10z m33 -27 c-4 -10 -2 -14 5 -9 6 3 13 3 16 -2 2 -4 -6 -8 -19 -8 -19 0 -22
3 -15 17 5 9 6 20 2 24 -4 5 -2 5 5 1 7 -4 9 -14 6 -23z m41 -89 c3 -8 2 -12
-4 -9 -6 3 -10 10 -10 16 0 14 7 11 14 -7z m66 -64 c12 -16 19 -30 16 -30 -2
0 -14 14 -26 30 -12 17 -19 30 -16 30 2 0 14 -13 26 -30z m-6 -49 c-2 -3 -12
3 -22 13 -16 17 -16 18 5 5 12 -7 20 -15 17 -18z m-3397 -3 c-3 -8 -6 -5 -6 6
-1 11 2 17 5 13 3 -3 4 -12 1 -19z m3428 -17 c-16 -14 -105 -63 -105 -58 0 5
101 66 110 67 2 0 0 -4 -5 -9z m-115 -55 c0 -2 -7 -7 -16 -10 -8 -3 -12 -2 -9
4 6 10 25 14 25 6z m-83 -22 c-3 -3 -12 -4 -19 -1 -8 3 -5 6 6 6 11 1 17 -2
13 -5z m28 -14 c-3 -5 -14 -10 -23 -9 -14 0 -13 2 3 9 27 11 27 11 20 0z
m-159 -64 c1 -8 -4 -13 -12 -12 -21 3 -29 16 -10 16 11 0 15 5 10 13 -4 6 -3
8 1 4 5 -4 10 -14 11 -21z m7229 -35 c-9 -8 -36 -10 -30 -2 2 4 11 8 20 8 8 0
13 -3 10 -6z m-7392 -52 c-27 -11 -40 -10 -23 1 8 5 11 10 7 10 -5 0 -5 5 -2
10 5 8 12 7 22 -2 13 -11 13 -13 -4 -19z m-44 -23 c-2 -2 -15 -9 -29 -15 -24
-11 -24 -11 -6 3 16 13 49 24 35 12z m-170 -29 c-2 -1 -13 -9 -24 -17 -19 -14
-19 -14 -6 3 7 9 18 17 24 17 6 0 8 -1 6 -3z m40 -23 c-6 -8 -17 -14 -23 -14
-6 0 -4 5 4 10 13 9 13 10 0 10 -13 0 -13 2 0 9 20 13 34 2 19 -15z m61 22 c0
-2 -7 -7 -16 -10 -8 -3 -12 -2 -9 4 6 10 25 14 25 6z m-103 -42 c-3 -3 -12 -4
-19 -1 -8 3 -5 6 6 6 11 1 17 -2 13 -5z m-117 -50 c0 -2 -9 0 -20 6 -11 6 -20
13 -20 16 0 2 9 0 20 -6 11 -6 20 -13 20 -16z m-20 -13 c0 -5 -7 -12 -16 -15
-14 -5 -15 -4 -4 9 14 17 20 19 20 6z m-135 -61 c3 0 3 4 0 10 -4 6 1 7 11 3
15 -5 15 -7 0 -15 -14 -8 -56 5 -56 18 0 2 9 0 19 -6 11 -5 22 -10 26 -10z
m-50 -20 c3 -5 2 -10 -4 -10 -5 0 -13 5 -16 10 -3 6 -2 10 4 10 5 0 13 -4 16
-10z m-60 -30 c-3 -5 -12 -10 -18 -10 -7 0 -6 4 3 10 19 12 23 12 15 0z m8225
-16 c0 -8 -19 -13 -24 -6 -3 5 1 9 9 9 8 0 15 -2 15 -3z m-8385 -34 c-3 -5
-14 -10 -23 -9 -14 0 -13 2 3 9 27 11 27 11 20 0z m-175 -66 c0 -2 -9 0 -20 6
-11 6 -20 13 -20 16 0 2 9 0 20 -6 11 -6 20 -13 20 -16z m76 4 c-10 -6 -22 -6
-26 -2 -5 5 3 10 18 11 22 1 24 0 8 -9z m-101 -16 c-3 -3 -11 0 -18 7 -9 10
-8 11 6 5 10 -3 15 -9 12 -12z m-60 -42 c3 -5 1 -10 -4 -10 -6 0 -11 5 -11 10
0 6 2 10 4 10 3 0 8 -4 11 -10z m-155 -30 c0 -5 -4 -10 -10 -10 -5 0 -10 5
-10 10 0 6 5 10 10 10 6 0 10 -4 10 -10z m-175 -88 c-3 -3 -11 0 -18 7 -9 10
-8 11 6 5 10 -3 15 -9 12 -12z m-178 -71 c0 -11 -5 -18 -9 -15 -4 3 -5 11 -1
19 7 21 12 19 10 -4z m-272 -89 c-3 -3 -11 0 -18 7 -9 10 -8 11 6 5 10 -3 15
-9 12 -12z m39 0 c3 -5 -1 -9 -9 -9 -8 0 -12 4 -9 9 3 4 7 8 9 8 2 0 6 -4 9
-8z m-167 -68 c-3 -3 -12 -4 -19 -1 -8 3 -5 6 6 6 11 1 17 -2 13 -5z m9847
-10 c3 -8 2 -12 -4 -9 -6 3 -10 10 -10 16 0 14 7 11 14 -7z m-9961 -21 c-7 -2
-19 -2 -25 0 -7 3 -2 5 12 5 14 0 19 -2 13 -5z m-233 -77 c0 -11 -19 -15 -25
-6 -3 5 1 10 9 10 9 0 16 -2 16 -4z m-510 -141 c0 -2 -10 -9 -22 -15 -22 -11
-22 -10 -4 4 21 17 26 19 26 11z m45 -5 c-3 -5 -12 -10 -18 -10 -7 0 -6 4 3
10 19 12 23 12 15 0z m10240 -976 c9 -15 12 -23 6 -20 -11 7 -35 46 -28 46 3
0 12 -12 22 -26z m509 -812 c3 -5 -1 -9 -9 -9 -8 0 -12 4 -9 9 3 4 7 8 9 8 2
0 6 -4 9 -8z m-19259 -173 c68 -70 423 -398 575 -529 666 -577 1563 -1263
2585 -1977 217 -152 339 -244 378 -286 65 -68 128 -187 146 -275 14 -66 14
-183 0 -242 -16 -72 -1629 -5081 -1650 -5123 -53 -111 -131 -176 -334 -277
-161 -79 -330 -138 -495 -172 -99 -20 -145 -23 -330 -23 -189 0 -228 3 -320
23 -153 35 -252 68 -365 122 -542 260 -904 802 -1010 1510 -28 183 -32 530 -9
742 11 95 18 199 17 231 -3 71 -36 148 -89 206 -42 47 -48 51 -229 136 -576
271 -1316 771 -1925 1300 -147 127 -480 436 -480 445 0 3 26 21 58 39 179 106
507 336 725 509 426 337 912 820 1278 1272 530 654 1030 1482 1355 2247 38 90
71 163 74 163 3 0 24 -19 45 -41z m-6550 -1379 c461 -663 906 -1303 989 -1423
83 -119 271 -389 418 -600 147 -210 281 -407 297 -437 40 -75 79 -213 87 -309
12 -145 -32 -332 -107 -454 -133 -217 -731 -877 -1168 -1290 -997 -942 -2062
-1720 -3371 -2463 -327 -185 -428 -219 -655 -217 -168 1 -253 20 -392 88 -179
88 -404 297 -599 556 -194 257 -342 572 -405 865 -27 123 -37 394 -20 516 54
377 258 731 589 1020 166 146 304 248 1070 792 199 142 362 259 362 260 0 2
-21 -1 -47 -5 -27 -5 -313 -56 -637 -113 l-589 -105 -26 20 c-137 108 -789
746 -1062 1039 -180 194 -406 448 -538 605 l-101 120 123 23 c1189 219 2232
591 3072 1095 748 449 1341 991 1746 1593 l71 106 27 -39 c16 -21 405 -580
866 -1243z m25909 -1806 c3 -8 2 -12 -4 -9 -6 3 -10 10 -10 16 0 14 7 11 14
-7z m266 -639 c0 -5 -5 -3 -10 5 -5 8 -10 20 -10 25 0 6 5 3 10 -5 5 -8 10
-19 10 -25z m245 -4435 c3 -6 -1 -7 -9 -4 -18 7 -21 14 -7 14 6 0 13 -4 16
-10z" />
   </g>
</svg>
