<svg id="visual" viewBox="0 0 900 600" width="900" height="600">
   <g>
      <g transform="translate(447 107)">
         <path d="M0 -15.5L12.1 -9.7L15.1 3.5L6.7 14L-6.7 14L-15.1 3.5L-12.1 -9.7Z" fill="#33ddd0"></path>
      </g>
      <g transform="translate(879 352)">
         <path d="M0 -5L3.9 -3.1L4.9 1.1L2.2 4.5L-2.2 4.5L-4.9 1.1L-3.9 -3.1Z" fill="#33ddd0"></path>
      </g>
      <g transform="translate(213 493)">
         <path d="M0 -6L4.7 -3.7L5.8 1.3L2.6 5.4L-2.6 5.4L-5.8 1.3L-4.7 -3.7Z" fill="#33ddd0"></path>
      </g>
      <g transform="translate(591 208)">
         <path d="M0 -3L2.3 -1.9L2.9 0.7L1.3 2.7L-1.3 2.7L-2.9 0.7L-2.3 -1.9Z" fill="#33ddd0"></path>
      </g>
      <g transform="translate(386 395)">
         <path d="M0 -1L0.8 -0.6L1 0.2L0.4 0.9L-0.4 0.9L-1 0.2L-0.8 -0.6Z" fill="#33ddd0"></path>
      </g>
      <g transform="translate(306 379)">
         <path d="M0 -10L7.8 -6.2L9.7 2.2L4.3 9L-4.3 9L-9.7 2.2L-7.8 -6.2Z" fill="#33ddd0"></path>
      </g>
      <g transform="translate(583 338)">
         <path d="M0 -10L7.8 -6.2L9.7 2.2L4.3 9L-4.3 9L-9.7 2.2L-7.8 -6.2Z" fill="#33ddd0"></path>
      </g>
      <g transform="translate(394 524)">
         <path d="M0 -1L0.8 -0.6L1 0.2L0.4 0.9L-0.4 0.9L-1 0.2L-0.8 -0.6Z" fill="#33ddd0"></path>
      </g>
      <g transform="translate(55 463)">
         <path d="M0 -2L1.6 -1.2L1.9 0.4L0.9 1.8L-0.9 1.8L-1.9 0.4L-1.6 -1.2Z" fill="#33ddd0"></path>
      </g>
      <g transform="translate(298 342)">
         <path d="M0 -10L7.8 -6.2L9.7 2.2L4.3 9L-4.3 9L-9.7 2.2L-7.8 -6.2Z" fill="#33ddd0"></path>
      </g>
      <g transform="translate(222 227)">
         <path d="M0 -13L10.2 -8.1L12.7 2.9L5.6 11.7L-5.6 11.7L-12.7 2.9L-10.2 -8.1Z" fill="#33ddd0"></path>
      </g>
      <g transform="translate(713 173)">
         <path d="M0 -2L1.6 -1.2L1.9 0.4L0.9 1.8L-0.9 1.8L-1.9 0.4L-1.6 -1.2Z" fill="#33ddd0"></path>
      </g>
      <g transform="translate(106 289)">
         <path d="M0 -4L3.1 -2.5L3.9 0.9L1.7 3.6L-1.7 3.6L-3.9 0.9L-3.1 -2.5Z" fill="#33ddd0"></path>
      </g>
      <g transform="translate(344 250)">
         <path d="M0 -3L2.3 -1.9L2.9 0.7L1.3 2.7L-1.3 2.7L-2.9 0.7L-2.3 -1.9Z" fill="#33ddd0"></path>
      </g>
      <g transform="translate(695 429)">
         <path d="M0 -5L3.9 -3.1L4.9 1.1L2.2 4.5L-2.2 4.5L-4.9 1.1L-3.9 -3.1Z" fill="#33ddd0"></path>
      </g>
      <g transform="translate(715 73)">
         <path d="M0 -13L10.2 -8.1L12.7 2.9L5.6 11.7L-5.6 11.7L-12.7 2.9L-10.2 -8.1Z" fill="#33ddd0"></path>
      </g>
      <g transform="translate(429 168)">
         <path d="M0 -3L2.3 -1.9L2.9 0.7L1.3 2.7L-1.3 2.7L-2.9 0.7L-2.3 -1.9Z" fill="#33ddd0"></path>
      </g>
      <g transform="translate(35 551)">
         <path d="M0 -3L2.3 -1.9L2.9 0.7L1.3 2.7L-1.3 2.7L-2.9 0.7L-2.3 -1.9Z" fill="#33ddd0"></path>
      </g>
      <g transform="translate(388 348)">
         <path d="M0 -13L10.2 -8.1L12.7 2.9L5.6 11.7L-5.6 11.7L-12.7 2.9L-10.2 -8.1Z" fill="#33ddd0"></path>
      </g>
      <g transform="translate(644 127)">
         <path d="M0 -3L2.3 -1.9L2.9 0.7L1.3 2.7L-1.3 2.7L-2.9 0.7L-2.3 -1.9Z" fill="#33ddd0"></path>
      </g>
      <g transform="translate(292 214)">
         <path d="M0 -14L10.9 -8.7L13.6 3.1L6.1 12.6L-6.1 12.6L-13.6 3.1L-10.9 -8.7Z" fill="#33ddd0"></path>
      </g>
      <g transform="translate(200 257)">
         <path d="M0 -6L4.7 -3.7L5.8 1.3L2.6 5.4L-2.6 5.4L-5.8 1.3L-4.7 -3.7Z" fill="#33ddd0"></path>
      </g>
      <g transform="translate(145 485)">
         <path d="M0 -2L1.6 -1.2L1.9 0.4L0.9 1.8L-0.9 1.8L-1.9 0.4L-1.6 -1.2Z" fill="#33ddd0"></path>
      </g>
      <g transform="translate(346 424)">
         <path d="M0 -13L10.2 -8.1L12.7 2.9L5.6 11.7L-5.6 11.7L-12.7 2.9L-10.2 -8.1Z" fill="#33ddd0"></path>
      </g>
      <g transform="translate(339 317)">
         <path d="M0 -5L3.9 -3.1L4.9 1.1L2.2 4.5L-2.2 4.5L-4.9 1.1L-3.9 -3.1Z" fill="#33ddd0"></path>
      </g>
      <g transform="translate(840 389)">
         <path d="M0 -6L4.7 -3.7L5.8 1.3L2.6 5.4L-2.6 5.4L-5.8 1.3L-4.7 -3.7Z" fill="#33ddd0"></path>
      </g>
      <g transform="translate(92 366)">
         <path d="M0 -4L3.1 -2.5L3.9 0.9L1.7 3.6L-1.7 3.6L-3.9 0.9L-3.1 -2.5Z" fill="#33ddd0"></path>
      </g>
      <g transform="translate(590 116)">
         <path d="M0 -5L3.9 -3.1L4.9 1.1L2.2 4.5L-2.2 4.5L-4.9 1.1L-3.9 -3.1Z" fill="#33ddd0"></path>
      </g>
      <g transform="translate(190 190)">
         <path d="M0 -13L10.2 -8.1L12.7 2.9L5.6 11.7L-5.6 11.7L-12.7 2.9L-10.2 -8.1Z" fill="#33ddd0"></path>
      </g>
      <g transform="translate(444 297)">
         <path d="M0 -10L7.8 -6.2L9.7 2.2L4.3 9L-4.3 9L-9.7 2.2L-7.8 -6.2Z" fill="#33ddd0"></path>
      </g>
      <g transform="translate(442 227)">
         <path d="M0 -3L2.3 -1.9L2.9 0.7L1.3 2.7L-1.3 2.7L-2.9 0.7L-2.3 -1.9Z" fill="#33ddd0"></path>
      </g>
      <g transform="translate(380 581)">
         <path d="M0 -10L7.8 -6.2L9.7 2.2L4.3 9L-4.3 9L-9.7 2.2L-7.8 -6.2Z" fill="#33ddd0"></path>
      </g>
      <g transform="translate(87 537)">
         <path d="M0 -11L8.6 -6.9L10.7 2.4L4.8 9.9L-4.8 9.9L-10.7 2.4L-8.6 -6.9Z" fill="#33ddd0"></path>
      </g>
      <g transform="translate(615 245)">
         <path d="M0 -1L0.8 -0.6L1 0.2L0.4 0.9L-0.4 0.9L-1 0.2L-0.8 -0.6Z" fill="#33ddd0"></path>
      </g>
      <g transform="translate(377 454)">
         <path d="M0 -14L10.9 -8.7L13.6 3.1L6.1 12.6L-6.1 12.6L-13.6 3.1L-10.9 -8.7Z" fill="#33ddd0"></path>
      </g>
      <g transform="translate(765 539)">
         <path d="M0 -2L1.6 -1.2L1.9 0.4L0.9 1.8L-0.9 1.8L-1.9 0.4L-1.6 -1.2Z" fill="#33ddd0"></path>
      </g>
      <g transform="translate(821 343)">
         <path d="M0 -2L1.6 -1.2L1.9 0.4L0.9 1.8L-0.9 1.8L-1.9 0.4L-1.6 -1.2Z" fill="#33ddd0"></path>
      </g>
      <g transform="translate(539 85)">
         <path d="M0 -10L7.8 -6.2L9.7 2.2L4.3 9L-4.3 9L-9.7 2.2L-7.8 -6.2Z" fill="#33ddd0"></path>
      </g>
      <g transform="translate(780 413)">
         <path d="M0 -10L7.8 -6.2L9.7 2.2L4.3 9L-4.3 9L-9.7 2.2L-7.8 -6.2Z" fill="#33ddd0"></path>
      </g>
      <g transform="translate(219 85)">
         <path d="M0 -11L8.6 -6.9L10.7 2.4L4.8 9.9L-4.8 9.9L-10.7 2.4L-8.6 -6.9Z" fill="#33ddd0"></path>
      </g>
      <g transform="translate(689 114)">
         <path d="M0 -7L5.5 -4.4L6.8 1.6L3 6.3L-3 6.3L-6.8 1.6L-5.5 -4.4Z" fill="#33ddd0"></path>
      </g>
      <g transform="translate(88 218)">
         <path d="M0 -2L1.6 -1.2L1.9 0.4L0.9 1.8L-0.9 1.8L-1.9 0.4L-1.6 -1.2Z" fill="#33ddd0"></path>
      </g>
      <g transform="translate(777 476)">
         <path d="M0 -6L4.7 -3.7L5.8 1.3L2.6 5.4L-2.6 5.4L-5.8 1.3L-4.7 -3.7Z" fill="#33ddd0"></path>
      </g>
      <g transform="translate(373 159)">
         <path d="M0 -4L3.1 -2.5L3.9 0.9L1.7 3.6L-1.7 3.6L-3.9 0.9L-3.1 -2.5Z" fill="#33ddd0"></path>
      </g>
      <g transform="translate(487 287)">
         <path d="M0 -8L6.3 -5L7.8 1.8L3.5 7.2L-3.5 7.2L-7.8 1.8L-6.3 -5Z" fill="#33ddd0"></path>
      </g>
      <g transform="translate(542 362)">
         <path d="M0 -3L2.3 -1.9L2.9 0.7L1.3 2.7L-1.3 2.7L-2.9 0.7L-2.3 -1.9Z" fill="#33ddd0"></path>
      </g>
      <g transform="translate(321 457)">
         <path d="M0 -5L3.9 -3.1L4.9 1.1L2.2 4.5L-2.2 4.5L-4.9 1.1L-3.9 -3.1Z" fill="#33ddd0"></path>
      </g>
      <g transform="translate(641 71)">
         <path d="M0 -11L8.6 -6.9L10.7 2.4L4.8 9.9L-4.8 9.9L-10.7 2.4L-8.6 -6.9Z" fill="#33ddd0"></path>
      </g>
      <g transform="translate(742 117)">
         <path d="M0 -14L10.9 -8.7L13.6 3.1L6.1 12.6L-6.1 12.6L-13.6 3.1L-10.9 -8.7Z" fill="#33ddd0"></path>
      </g>
      <g transform="translate(529 172)">
         <path d="M0 -9L7 -5.6L8.8 2L3.9 8.1L-3.9 8.1L-8.8 2L-7 -5.6Z" fill="#33ddd0"></path>
      </g>
      <g transform="translate(654 380)">
         <path d="M0 -4L3.1 -2.5L3.9 0.9L1.7 3.6L-1.7 3.6L-3.9 0.9L-3.1 -2.5Z" fill="#33ddd0"></path>
      </g>
      <g transform="translate(525 118)">
         <path d="M0 -14L10.9 -8.7L13.6 3.1L6.1 12.6L-6.1 12.6L-13.6 3.1L-10.9 -8.7Z" fill="#33ddd0"></path>
      </g>
      <g transform="translate(556 427)">
         <path d="M0 -3L2.3 -1.9L2.9 0.7L1.3 2.7L-1.3 2.7L-2.9 0.7L-2.3 -1.9Z" fill="#33ddd0"></path>
      </g>
      <g transform="translate(129 128)">
         <path d="M0 -9L7 -5.6L8.8 2L3.9 8.1L-3.9 8.1L-8.8 2L-7 -5.6Z" fill="#33ddd0"></path>
      </g>
      <g transform="translate(161 246)">
         <path d="M0 -13L10.2 -8.1L12.7 2.9L5.6 11.7L-5.6 11.7L-12.7 2.9L-10.2 -8.1Z" fill="#33ddd0"></path>
      </g>
      <g transform="translate(884 570)">
         <path d="M0 -14L10.9 -8.7L13.6 3.1L6.1 12.6L-6.1 12.6L-13.6 3.1L-10.9 -8.7Z" fill="#33ddd0"></path>
      </g>
      <g transform="translate(212 396)">
         <path d="M0 -1L0.8 -0.6L1 0.2L0.4 0.9L-0.4 0.9L-1 0.2L-0.8 -0.6Z" fill="#33ddd0"></path>
      </g>
      <g transform="translate(653 185)">
         <path d="M0 -7L5.5 -4.4L6.8 1.6L3 6.3L-3 6.3L-6.8 1.6L-5.5 -4.4Z" fill="#33ddd0"></path>
      </g>
      <g transform="translate(179 294)">
         <path d="M0 -14L10.9 -8.7L13.6 3.1L6.1 12.6L-6.1 12.6L-13.6 3.1L-10.9 -8.7Z" fill="#33ddd0"></path>
      </g>
      <g transform="translate(288 266)">
         <path d="M0 -14L10.9 -8.7L13.6 3.1L6.1 12.6L-6.1 12.6L-13.6 3.1L-10.9 -8.7Z" fill="#33ddd0"></path>
      </g>
      <g transform="translate(75 276)">
         <path d="M0 -9L7 -5.6L8.8 2L3.9 8.1L-3.9 8.1L-8.8 2L-7 -5.6Z" fill="#33ddd0"></path>
      </g>
      <g transform="translate(136 204)">
         <path d="M0 -3L2.3 -1.9L2.9 0.7L1.3 2.7L-1.3 2.7L-2.9 0.7L-2.3 -1.9Z" fill="#33ddd0"></path>
      </g>
      <g transform="translate(271 486)">
         <path d="M0 -4L3.1 -2.5L3.9 0.9L1.7 3.6L-1.7 3.6L-3.9 0.9L-3.1 -2.5Z" fill="#33ddd0"></path>
      </g>
      <g transform="translate(864 507)">
         <path d="M0 -2L1.6 -1.2L1.9 0.4L0.9 1.8L-0.9 1.8L-1.9 0.4L-1.6 -1.2Z" fill="#33ddd0"></path>
      </g>
      <g transform="translate(30 197)">
         <path d="M0 -7L5.5 -4.4L6.8 1.6L3 6.3L-3 6.3L-6.8 1.6L-5.5 -4.4Z" fill="#33ddd0"></path>
      </g>
      <g transform="translate(757 289)">
         <path d="M0 -1L0.8 -0.6L1 0.2L0.4 0.9L-0.4 0.9L-1 0.2L-0.8 -0.6Z" fill="#33ddd0"></path>
      </g>
      <g transform="translate(272 568)">
         <path d="M0 -13L10.2 -8.1L12.7 2.9L5.6 11.7L-5.6 11.7L-12.7 2.9L-10.2 -8.1Z" fill="#33ddd0"></path>
      </g>
      <g transform="translate(420 583)">
         <path d="M0 -7L5.5 -4.4L6.8 1.6L3 6.3L-3 6.3L-6.8 1.6L-5.5 -4.4Z" fill="#33ddd0"></path>
      </g>
      <g transform="translate(34 91)">
         <path d="M0 -10L7.8 -6.2L9.7 2.2L4.3 9L-4.3 9L-9.7 2.2L-7.8 -6.2Z" fill="#33ddd0"></path>
      </g>
      <g transform="translate(711 335)">
         <path d="M0 -1L0.8 -0.6L1 0.2L0.4 0.9L-0.4 0.9L-1 0.2L-0.8 -0.6Z" fill="#33ddd0"></path>
      </g>
      <g transform="translate(324 211)">
         <path d="M0 -4L3.1 -2.5L3.9 0.9L1.7 3.6L-1.7 3.6L-3.9 0.9L-3.1 -2.5Z" fill="#33ddd0"></path>
      </g>
      <g transform="translate(707 280)">
         <path d="M0 -3L2.3 -1.9L2.9 0.7L1.3 2.7L-1.3 2.7L-2.9 0.7L-2.3 -1.9Z" fill="#33ddd0"></path>
      </g>
      <g transform="translate(564 136)">
         <path d="M0 -11L8.6 -6.9L10.7 2.4L4.8 9.9L-4.8 9.9L-10.7 2.4L-8.6 -6.9Z" fill="#33ddd0"></path>
      </g>
      <g transform="translate(453 382)">
         <path d="M0 -1L0.8 -0.6L1 0.2L0.4 0.9L-0.4 0.9L-1 0.2L-0.8 -0.6Z" fill="#33ddd0"></path>
      </g>
      <g transform="translate(153 45)">
         <path d="M0 -7L5.5 -4.4L6.8 1.6L3 6.3L-3 6.3L-6.8 1.6L-5.5 -4.4Z" fill="#33ddd0"></path>
      </g>
      <g transform="translate(819 448)">
         <path d="M0 -9L7 -5.6L8.8 2L3.9 8.1L-3.9 8.1L-8.8 2L-7 -5.6Z" fill="#33ddd0"></path>
      </g>
      <g transform="translate(337 498)">
         <path d="M0 -1L0.8 -0.6L1 0.2L0.4 0.9L-0.4 0.9L-1 0.2L-0.8 -0.6Z" fill="#33ddd0"></path>
      </g>
      <g transform="translate(644 228)">
         <path d="M0 -14L10.9 -8.7L13.6 3.1L6.1 12.6L-6.1 12.6L-13.6 3.1L-10.9 -8.7Z" fill="#33ddd0"></path>
      </g>
      <g transform="translate(476 566)">
         <path d="M0 -2L1.6 -1.2L1.9 0.4L0.9 1.8L-0.9 1.8L-1.9 0.4L-1.6 -1.2Z" fill="#33ddd0"></path>
      </g>
      <g transform="translate(200 571)">
         <path d="M0 -4L3.1 -2.5L3.9 0.9L1.7 3.6L-1.7 3.6L-3.9 0.9L-3.1 -2.5Z" fill="#33ddd0"></path>
      </g>
      <g transform="translate(328 43)">
         <path d="M0 -3L2.3 -1.9L2.9 0.7L1.3 2.7L-1.3 2.7L-2.9 0.7L-2.3 -1.9Z" fill="#33ddd0"></path>
      </g>
      <g transform="translate(33 499)">
         <path d="M0 -8L6.3 -5L7.8 1.8L3.5 7.2L-3.5 7.2L-7.8 1.8L-6.3 -5Z" fill="#33ddd0"></path>
      </g>
      <g transform="translate(222 340)">
         <path d="M0 -14L10.9 -8.7L13.6 3.1L6.1 12.6L-6.1 12.6L-13.6 3.1L-10.9 -8.7Z" fill="#33ddd0"></path>
      </g>
      <g transform="translate(141 89)">
         <path d="M0 -5L3.9 -3.1L4.9 1.1L2.2 4.5L-2.2 4.5L-4.9 1.1L-3.9 -3.1Z" fill="#33ddd0"></path>
      </g>
      <g transform="translate(158 347)">
         <path d="M0 -11L8.6 -6.9L10.7 2.4L4.8 9.9L-4.8 9.9L-10.7 2.4L-8.6 -6.9Z" fill="#33ddd0"></path>
      </g>
      <g transform="translate(144 434)">
         <path d="M0 -14L10.9 -8.7L13.6 3.1L6.1 12.6L-6.1 12.6L-13.6 3.1L-10.9 -8.7Z" fill="#33ddd0"></path>
      </g>
      <g transform="translate(592 513)">
         <path d="M0 -4L3.1 -2.5L3.9 0.9L1.7 3.6L-1.7 3.6L-3.9 0.9L-3.1 -2.5Z" fill="#33ddd0"></path>
      </g>
      <g transform="translate(872 404)">
         <path d="M0 -6L4.7 -3.7L5.8 1.3L2.6 5.4L-2.6 5.4L-5.8 1.3L-4.7 -3.7Z" fill="#33ddd0"></path>
      </g>
      <g transform="translate(884 223)">
         <path d="M0 -5L3.9 -3.1L4.9 1.1L2.2 4.5L-2.2 4.5L-4.9 1.1L-3.9 -3.1Z" fill="#33ddd0"></path>
      </g>
      <g transform="translate(727 210)">
         <path d="M0 -5L3.9 -3.1L4.9 1.1L2.2 4.5L-2.2 4.5L-4.9 1.1L-3.9 -3.1Z" fill="#33ddd0"></path>
      </g>
      <g transform="translate(516 213)">
         <path d="M0 -6L4.7 -3.7L5.8 1.3L2.6 5.4L-2.6 5.4L-5.8 1.3L-4.7 -3.7Z" fill="#33ddd0"></path>
      </g>
      <g transform="translate(373 207)">
         <path d="M0 -13L10.2 -8.1L12.7 2.9L5.6 11.7L-5.6 11.7L-12.7 2.9L-10.2 -8.1Z" fill="#33ddd0"></path>
      </g>
      <g transform="translate(244 263)">
         <path d="M0 -1L0.8 -0.6L1 0.2L0.4 0.9L-0.4 0.9L-1 0.2L-0.8 -0.6Z" fill="#33ddd0"></path>
      </g>
      <g transform="translate(466 429)">
         <path d="M0 -12L9.4 -7.5L11.7 2.7L5.2 10.8L-5.2 10.8L-11.7 2.7L-9.4 -7.5Z" fill="#33ddd0"></path>
      </g>
      <g transform="translate(469 133)">
         <path d="M0 -14L10.9 -8.7L13.6 3.1L6.1 12.6L-6.1 12.6L-13.6 3.1L-10.9 -8.7Z" fill="#33ddd0"></path>
      </g>
      <g transform="translate(842 194)">
         <path d="M0 -6L4.7 -3.7L5.8 1.3L2.6 5.4L-2.6 5.4L-5.8 1.3L-4.7 -3.7Z" fill="#33ddd0"></path>
      </g>
      <g transform="translate(401 60)">
         <path d="M0 -12L9.4 -7.5L11.7 2.7L5.2 10.8L-5.2 10.8L-11.7 2.7L-9.4 -7.5Z" fill="#33ddd0"></path>
      </g>
      <g transform="translate(587 296)">
         <path d="M0 -12L9.4 -7.5L11.7 2.7L5.2 10.8L-5.2 10.8L-11.7 2.7L-9.4 -7.5Z" fill="#33ddd0"></path>
      </g>
      <g transform="translate(408 261)">
         <path d="M0 -4L3.1 -2.5L3.9 0.9L1.7 3.6L-1.7 3.6L-3.9 0.9L-3.1 -2.5Z" fill="#33ddd0"></path>
      </g>
      <g transform="translate(546 576)">
         <path d="M0 -8L6.3 -5L7.8 1.8L3.5 7.2L-3.5 7.2L-7.8 1.8L-6.3 -5Z" fill="#33ddd0"></path>
      </g>
      <g transform="translate(597 391)">
         <path d="M0 -5L3.9 -3.1L4.9 1.1L2.2 4.5L-2.2 4.5L-4.9 1.1L-3.9 -3.1Z" fill="#33ddd0"></path>
      </g>
      <g transform="translate(177 453)">
         <path d="M0 -2L1.6 -1.2L1.9 0.4L0.9 1.8L-0.9 1.8L-1.9 0.4L-1.6 -1.2Z" fill="#33ddd0"></path>
      </g>
      <g transform="translate(850 286)">
         <path d="M0 -6L4.7 -3.7L5.8 1.3L2.6 5.4L-2.6 5.4L-5.8 1.3L-4.7 -3.7Z" fill="#33ddd0"></path>
      </g>
      <g transform="translate(269 316)">
         <path d="M0 -9L7 -5.6L8.8 2L3.9 8.1L-3.9 8.1L-8.8 2L-7 -5.6Z" fill="#33ddd0"></path>
      </g>
      <g transform="translate(774 204)">
         <path d="M0 -1L0.8 -0.6L1 0.2L0.4 0.9L-0.4 0.9L-1 0.2L-0.8 -0.6Z" fill="#33ddd0"></path>
      </g>
      <g transform="translate(749 254)">
         <path d="M0 -6L4.7 -3.7L5.8 1.3L2.6 5.4L-2.6 5.4L-5.8 1.3L-4.7 -3.7Z" fill="#33ddd0"></path>
      </g>
      <g transform="translate(822 566)">
         <path d="M0 -11L8.6 -6.9L10.7 2.4L4.8 9.9L-4.8 9.9L-10.7 2.4L-8.6 -6.9Z" fill="#33ddd0"></path>
      </g>
      <g transform="translate(592 51)">
         <path d="M0 -8L6.3 -5L7.8 1.8L3.5 7.2L-3.5 7.2L-7.8 1.8L-6.3 -5Z" fill="#33ddd0"></path>
      </g>
      <g transform="translate(636 295)">
         <path d="M0 -4L3.1 -2.5L3.9 0.9L1.7 3.6L-1.7 3.6L-3.9 0.9L-3.1 -2.5Z" fill="#33ddd0"></path>
      </g>
      <g transform="translate(257 419)">
         <path d="M0 -1L0.8 -0.6L1 0.2L0.4 0.9L-0.4 0.9L-1 0.2L-0.8 -0.6Z" fill="#33ddd0"></path>
      </g>
      <g transform="translate(90 150)">
         <path d="M0 -1L0.8 -0.6L1 0.2L0.4 0.9L-0.4 0.9L-1 0.2L-0.8 -0.6Z" fill="#33ddd0"></path>
      </g>
      <g transform="translate(273 149)">
         <path d="M0 -13L10.2 -8.1L12.7 2.9L5.6 11.7L-5.6 11.7L-12.7 2.9L-10.2 -8.1Z" fill="#33ddd0"></path>
      </g>
      <g transform="translate(114 420)">
         <path d="M0 -5L3.9 -3.1L4.9 1.1L2.2 4.5L-2.2 4.5L-4.9 1.1L-3.9 -3.1Z" fill="#33ddd0"></path>
      </g>
      <g transform="translate(601 441)">
         <path d="M0 -5L3.9 -3.1L4.9 1.1L2.2 4.5L-2.2 4.5L-4.9 1.1L-3.9 -3.1Z" fill="#33ddd0"></path>
      </g>
      <g transform="translate(216 165)">
         <path d="M0 -12L9.4 -7.5L11.7 2.7L5.2 10.8L-5.2 10.8L-11.7 2.7L-9.4 -7.5Z" fill="#33ddd0"></path>
      </g>
      <g transform="translate(123 541)">
         <path d="M0 -5L3.9 -3.1L4.9 1.1L2.2 4.5L-2.2 4.5L-4.9 1.1L-3.9 -3.1Z" fill="#33ddd0"></path>
      </g>
      <g transform="translate(713 485)">
         <path d="M0 -4L3.1 -2.5L3.9 0.9L1.7 3.6L-1.7 3.6L-3.9 0.9L-3.1 -2.5Z" fill="#33ddd0"></path>
      </g>
      <g transform="translate(700 557)">
         <path d="M0 -6L4.7 -3.7L5.8 1.3L2.6 5.4L-2.6 5.4L-5.8 1.3L-4.7 -3.7Z" fill="#33ddd0"></path>
      </g>
      <g transform="translate(740 386)">
         <path d="M0 -8L6.3 -5L7.8 1.8L3.5 7.2L-3.5 7.2L-7.8 1.8L-6.3 -5Z" fill="#33ddd0"></path>
      </g>
      <g transform="translate(100 465)">
         <path d="M0 -7L5.5 -4.4L6.8 1.6L3 6.3L-3 6.3L-6.8 1.6L-5.5 -4.4Z" fill="#33ddd0"></path>
      </g>
      <g transform="translate(821 267)">
         <path d="M0 -10L7.8 -6.2L9.7 2.2L4.3 9L-4.3 9L-9.7 2.2L-7.8 -6.2Z" fill="#33ddd0"></path>
      </g>
      <g transform="translate(630 425)">
         <path d="M0 -13L10.2 -8.1L12.7 2.9L5.6 11.7L-5.6 11.7L-12.7 2.9L-10.2 -8.1Z" fill="#33ddd0"></path>
      </g>
      <g transform="translate(118 173)">
         <path d="M0 -4L3.1 -2.5L3.9 0.9L1.7 3.6L-1.7 3.6L-3.9 0.9L-3.1 -2.5Z" fill="#33ddd0"></path>
      </g>
      <g transform="translate(861 27)">
         <path d="M0 -10L7.8 -6.2L9.7 2.2L4.3 9L-4.3 9L-9.7 2.2L-7.8 -6.2Z" fill="#33ddd0"></path>
      </g>
      <g transform="translate(169 583)">
         <path d="M0 -5L3.9 -3.1L4.9 1.1L2.2 4.5L-2.2 4.5L-4.9 1.1L-3.9 -3.1Z" fill="#33ddd0"></path>
      </g>
      <g transform="translate(830 129)">
         <path d="M0 -1L0.8 -0.6L1 0.2L0.4 0.9L-0.4 0.9L-1 0.2L-0.8 -0.6Z" fill="#33ddd0"></path>
      </g>
      <g transform="translate(345 538)">
         <path d="M0 -3L2.3 -1.9L2.9 0.7L1.3 2.7L-1.3 2.7L-2.9 0.7L-2.3 -1.9Z" fill="#33ddd0"></path>
      </g>
   </g>
</svg>
